<svg xmlns="http://www.w3.org/2000/svg" version="1" viewBox="0 0 512 512"><path fill="#16c6cc" d="M308 178h204v298H308z"/><path fill="#e6e5e5" d="M308 159h204v19H308z"/><g fill="#242d3c"><path d="M336 206h102v5H336zM370 215h56v5h-56zM361 224h123v5H361zM361 232h18v5h-18zM336 254h46v5h-46zM361 262h115v5H361zM361 271h95v5h-95zM336 292h76v5h-76zM361 301h82v5h-82zM361 310h22v5h-22zM376 318h95v5h-95zM361 327h31v5h-31zM336 348h51v5h-51zM361 357h65v5h-65zM361 365h38v5h-38zM336 387h120v5H336zM361 395h27v5h-27zM361 404h57v5h-57zM390 413h88v5h-88zM336 434h69v5h-69zM361 443h84v5h-84z"/></g><path fill="#d9d8d7" d="M254 468H144l10-56h90z"/><path fill="#cccbca" d="M254 468l-10-56h-90l72 56z"/><path fill="#e6e5e5" d="M284 476H114v-3a5 5 0 0 1 5-5h159a5 5 0 0 1 6 5v3z"/><path fill="#242d3c" d="M398 375V121c0-5-5-9-10-9H10c-6 0-10 4-10 9v254h398z"/><path fill="#fff" d="M20 132h357v223H20z"/><path fill="#e6e5e5" d="M398 375v27c0 5-5 9-10 9H10c-6 0-10-4-10-9v-27h398z"/><path fill="#f2f2f2" d="M35 38h204v317H35z"/><path fill="#f15424" d="M35 38h204v19H35z"/><path fill="#16c6cc" d="M35 151h204v102H35z"/><g fill="#f15424"><path d="M51 268h47v38H51zM114 268h47v38h-47zM177 268h47v38h-47z"/></g><g fill="#fff"><path d="M51 166h47v38H51zM114 166h47v38h-47zM177 166h47v38h-47z"/></g><path fill="#ffca40" d="M51 73h173v23H51z"/><path fill="#f15424" d="M51 111h173v8H51z"/><g fill="#242d3c"><path d="M51 313h47v4H51zM51 321h47v4H51zM51 329h47v4H51zM51 337h24v4H51zM114 313h47v4h-47zM114 321h47v4h-47zM114 329h47v4h-47zM114 337h24v4h-24zM177 313h47v4h-47zM177 321h47v4h-47zM177 329h47v4h-47zM177 337h24v4h-24zM51 211h173v4H51zM51 219h173v4H51zM51 227h173v4H51zM51 235h86v4H51zM80 132h114v4H80zM70 82h19v4H70zM109 82h19v4h-19zM147 82h19v4h-19zM185 82h19v4h-19z"/></g><path fill="#ffca40" d="M320 38h42v317h-42z"/><g fill="#242d3c"><path d="M320 343h11v4h-11zM320 321h11v4h-11zM320 300h11v4h-11zM320 279h11v4h-11zM320 258h11v4h-11zM320 237h11v4h-11zM320 216h11v4h-11zM320 195h11v4h-11zM320 174h11v4h-11zM320 152h11v4h-11zM320 131h11v4h-11zM320 100h11v4h-11zM320 78h11v4h-11zM320 57h11v4h-11zM320 332h6v4h-6zM320 311h6v4h-6zM320 290h6v4h-6zM320 269h6v4h-6zM320 248h6v4h-6zM320 226h6v4h-6zM320 205h6v4h-6zM320 184h6v4h-6zM320 163h6v4h-6zM320 142h6v4h-6zM320 121h6v4h-6zM320 110h6v4h-6zM320 89h6v4h-6zM320 68h6v4h-6zM320 47h6v4h-6z"/></g><path fill="#f15424" d="M270 112h19v20h-19z"/><path fill="#ff6d3b" d="M270 185h19v170h-19z"/><path fill="#f15424" d="M280 185h10v170h-10z"/><path fill="#d9d8d7" d="M307 94l-27-58-27 58c9 0 17 8 17 17v1h19v-1c0-9 8-17 18-17z"/><path fill="#242d3c" d="M279 36h2v36h-2z"/><path fill="#3e4959" d="M291 132h1v52l-1 1h-23a1 1 0 0 1-1-1v-52a1 1 0 0 1 1 0h23z"/><path fill="#131a26" d="M267 132h25v51h-25z"/><g fill="#3e4959"><path d="M291 132h1v51h-1zM289 132h1v51h-1zM287 132h1v51h-1zM286 132h1v51h-1zM284 132h1v51h-1zM282 132h1v51h-1zM280 132h1v51h-1zM279 132h1v51h-1zM277 132h1v51h-1zM275 132h1v51h-1zM273 132h1v51h-1zM272 132h1v51h-1zM270 132h1v51h-1zM268 132h1v51h-1z"/></g><path fill="#242d3c" d="M512 92V81h-8l-3-10 7-4-5-9-7 4-8-8 5-7-10-5-4 7-10-3v-8h-11v8l-9 3-5-7-9 5 4 7-7 8-7-4-6 9 8 4c-2 3-2 6-3 10h-8v11h8l3 9-8 5 6 9 7-4 7 7-4 7 9 6 5-8 9 3v8h11v-8c4-1 7-1 10-3l4 8 10-6-5-7 8-7 7 4 5-9-7-5 3-9h8zm-48 20a26 26 0 1 1 0-52 26 26 0 0 1 0 52z"/></svg>