<svg id="svg" xmlns="http://www.w3.org/2000/svg" xmlns:xlink="http://www.w3.org/1999/xlink" width="400" height="130.31283710895363" viewBox="0, 0, 400,130.31283710895363"><g id="svgg"><path id="path0" d="M28.583 26.439 C 22.413 27.494,15.896 28.414,11.083 28.910 C 9.043 29.121,9.167 29.023,9.167 30.430 L 9.167 31.667 9.958 31.668 C 15.852 31.678,16.475 32.883,14.438 40.333 C 14.300 40.837,13.873 42.375,13.489 43.750 C 13.105 45.125,12.384 47.712,11.885 49.500 C 9.813 56.934,8.661 61.063,7.886 63.833 C 7.566 64.979,7.127 66.554,6.911 67.333 C 6.456 68.974,5.613 71.989,4.745 75.083 C 4.410 76.275,3.960 77.887,3.744 78.667 C 3.528 79.446,3.089 81.021,2.769 82.167 C -0.366 93.377,-0.286 92.794,1.125 94.165 C 5.073 98.001,13.724 99.439,21.129 97.488 C 28.463 95.557,34.653 91.029,40.234 83.515 C 48.567 72.294,49.846 57.789,42.961 52.575 C 37.072 48.115,28.421 50.356,22.440 57.890 C 21.552 59.008,21.512 58.898,22.078 56.882 C 22.304 56.076,23.170 52.904,24.002 49.833 C 24.834 46.762,25.770 43.313,26.082 42.167 C 26.745 39.737,28.427 33.532,29.268 30.417 C 29.590 29.225,29.990 27.781,30.157 27.208 C 30.508 26.006,30.666 26.083,28.583 26.439 M205.083 26.433 C 200.072 27.416,191.357 28.647,187.458 28.924 L 185.833 29.040 185.833 30.333 L 185.833 31.627 187.958 31.695 C 191.736 31.815,192.643 32.836,192.073 36.330 C 191.824 37.862,191.689 38.394,190.168 43.833 C 189.617 45.804,188.825 48.654,188.408 50.167 C 187.991 51.679,187.385 53.854,187.062 55.000 C 186.738 56.146,186.298 57.721,186.083 58.500 C 185.706 59.867,185.207 61.654,183.916 66.250 C 183.581 67.442,183.132 69.054,182.917 69.833 C 182.702 70.612,182.263 72.188,181.941 73.333 C 181.620 74.479,180.897 77.067,180.335 79.083 C 178.778 84.669,178.096 87.116,177.102 90.667 C 176.602 92.454,176.029 94.513,175.829 95.242 C 175.628 95.971,175.426 96.665,175.381 96.784 C 175.314 96.959,176.496 97.000,181.561 97.000 L 187.824 97.000 188.091 96.042 C 188.238 95.515,188.533 94.521,188.747 93.833 C 188.961 93.146,189.448 91.533,189.830 90.250 C 194.027 76.143,197.561 69.127,204.284 61.550 C 207.196 58.268,210.403 56.847,212.296 58.001 C 213.590 58.790,213.477 59.923,211.512 65.833 C 207.263 78.612,206.069 82.479,205.104 86.583 C 203.310 94.212,205.421 98.024,211.438 98.020 C 216.778 98.017,220.779 94.914,226.836 86.080 L 228.145 84.170 227.117 83.433 C 225.923 82.576,226.059 82.545,225.153 83.876 C 220.781 90.301,217.847 92.538,216.672 90.343 C 216.193 89.448,216.340 88.952,223.277 68.000 C 224.991 62.824,225.480 60.897,225.605 58.833 C 225.944 53.219,222.578 49.952,216.917 50.398 C 211.065 50.859,206.386 54.627,198.009 65.625 C 196.722 67.315,196.165 67.920,196.167 67.625 C 196.167 67.572,197.813 61.321,199.249 55.917 C 199.858 53.625,200.572 50.925,200.835 49.917 C 201.098 48.908,201.586 47.071,201.919 45.833 C 202.252 44.596,202.739 42.758,203.000 41.750 C 203.261 40.742,203.749 38.904,204.083 37.667 C 204.417 36.429,204.866 34.742,205.080 33.917 C 205.800 31.140,206.483 28.557,206.815 27.358 L 207.145 26.167 206.698 26.185 C 206.451 26.196,205.725 26.307,205.083 26.433 M115.464 38.052 C 113.127 41.613,109.322 45.416,105.548 47.962 C 103.641 49.249,98.172 52.000,97.522 52.000 C 97.394 52.000,97.333 52.559,97.333 53.750 L 97.333 55.500 99.917 55.500 C 102.907 55.500,102.718 55.335,102.099 57.408 C 101.878 58.146,101.421 59.762,101.084 61.000 C 100.746 62.237,100.257 64.000,99.997 64.917 C 99.437 66.892,98.467 70.353,97.918 72.333 C 97.703 73.112,97.253 74.725,96.919 75.917 C 96.586 77.108,96.084 78.908,95.805 79.917 C 95.525 80.925,95.122 82.350,94.908 83.083 C 93.553 87.734,93.005 90.925,93.306 92.422 C 94.850 100.112,105.081 99.863,111.793 91.971 C 113.869 89.530,117.500 84.596,117.500 84.215 C 117.500 83.947,115.446 82.744,115.371 82.969 C 114.666 85.084,109.254 90.670,107.749 90.835 C 105.283 91.106,105.220 89.094,107.451 81.333 C 107.860 79.912,108.556 77.438,108.999 75.833 C 109.442 74.229,110.120 71.792,110.506 70.417 C 110.892 69.042,111.416 67.167,111.669 66.250 C 111.923 65.333,112.319 63.908,112.550 63.083 C 112.781 62.258,113.231 60.646,113.550 59.500 C 113.870 58.354,114.257 56.985,114.411 56.458 L 114.690 55.500 119.012 55.500 L 123.333 55.500 123.333 53.500 L 123.333 51.500 119.667 51.500 C 115.460 51.500,115.762 51.652,116.322 49.809 C 116.499 49.227,116.754 48.337,116.889 47.833 C 117.023 47.329,117.396 45.979,117.718 44.833 C 118.039 43.688,118.607 41.662,118.979 40.333 C 119.351 39.004,119.727 37.673,119.816 37.375 L 119.977 36.833 118.113 36.844 L 116.250 36.854 115.464 38.052 M77.583 50.266 C 69.240 51.444,62.505 55.957,56.556 64.356 C 48.956 75.086,48.159 88.707,54.804 94.290 C 63.003 101.178,74.472 99.285,81.647 89.859 C 82.659 88.529,85.333 84.597,85.333 84.438 C 85.333 84.053,82.426 82.799,82.221 83.096 C 77.822 89.473,74.660 91.883,70.667 91.907 C 64.924 91.940,62.513 87.686,63.924 80.009 L 64.194 78.540 65.222 78.427 C 81.179 76.674,94.339 64.235,89.815 55.182 C 88.118 51.787,82.579 49.561,77.583 50.266 M149.750 50.279 C 142.549 51.178,134.941 57.379,128.829 67.333 C 122.363 77.864,121.396 90.503,126.691 95.292 C 129.054 97.430,131.366 98.328,134.515 98.331 C 140.180 98.337,144.593 95.240,149.811 87.597 C 151.341 85.355,151.367 85.376,150.644 88.301 C 149.535 92.786,150.124 95.230,152.750 97.034 C 157.785 100.494,163.435 97.650,170.671 88.014 L 172.476 85.611 171.613 85.007 C 171.138 84.675,170.665 84.351,170.562 84.288 C 170.447 84.217,169.656 85.067,168.540 86.461 C 164.868 91.045,163.377 92.072,162.051 90.931 C 160.993 90.020,161.856 85.586,165.768 71.833 C 166.641 68.762,168.067 63.737,168.935 60.667 C 169.804 57.596,170.743 54.296,171.023 53.333 C 171.302 52.371,171.570 51.440,171.618 51.266 C 171.700 50.968,171.629 50.955,170.500 51.049 C 169.838 51.105,167.430 51.283,165.149 51.444 L 161.002 51.738 160.150 54.385 C 159.262 57.143,159.192 57.230,158.845 56.000 C 157.587 51.542,154.615 49.672,149.750 50.279 M258.597 50.340 C 246.287 52.273,232.671 70.577,232.667 85.196 C 232.665 93.357,236.534 98.071,243.417 98.295 C 249.361 98.487,253.761 95.494,259.238 87.531 C 260.490 85.711,260.846 85.340,260.522 86.193 C 257.967 92.912,260.328 98.106,266.030 98.307 C 270.632 98.469,275.150 94.962,281.048 86.648 L 281.830 85.545 280.920 84.941 C 280.420 84.609,279.939 84.317,279.851 84.293 C 279.763 84.270,278.894 85.250,277.919 86.471 C 274.990 90.143,273.624 91.333,272.342 91.333 C 270.583 91.333,270.549 89.336,272.196 82.750 C 272.655 80.917,273.103 79.118,273.191 78.753 C 273.280 78.388,274.066 75.575,274.938 72.503 C 275.810 69.430,277.234 64.404,278.103 61.333 C 278.971 58.262,279.839 55.225,280.030 54.583 C 280.548 52.849,280.992 51.103,280.932 51.043 C 280.902 51.014,278.515 51.158,275.626 51.364 L 270.373 51.739 269.503 54.387 C 269.025 55.842,268.580 56.970,268.515 56.892 C 268.449 56.814,268.260 56.300,268.094 55.750 C 266.758 51.315,263.653 49.546,258.597 50.340 M356.295 50.425 C 347.621 51.776,342.997 59.142,345.732 67.250 C 346.704 70.131,348.262 72.710,350.904 75.815 C 355.070 80.710,357.419 83.859,358.494 85.989 C 362.191 93.312,354.806 98.485,348.321 93.115 C 345.968 91.167,344.374 87.918,343.828 83.961 C 343.513 81.673,343.666 81.890,342.294 81.788 C 340.779 81.675,340.979 81.258,340.352 85.833 C 340.057 87.987,339.598 91.287,339.332 93.167 C 339.067 95.046,338.802 96.977,338.743 97.458 L 338.635 98.333 339.943 98.329 L 341.250 98.324 341.667 97.645 C 342.720 95.929,343.668 95.817,347.175 96.996 C 360.113 101.344,371.397 93.712,369.017 82.222 C 368.226 78.402,367.261 76.777,361.511 69.583 C 355.646 62.247,355.295 61.667,355.194 59.153 C 355.037 55.242,357.910 52.777,361.791 53.493 C 365.699 54.214,368.382 57.818,369.751 64.187 L 370.024 65.458 370.785 65.562 C 372.149 65.749,372.666 65.698,372.672 65.375 C 372.675 65.215,372.900 63.621,373.171 61.833 C 373.443 60.046,373.853 57.308,374.082 55.750 C 374.312 54.192,374.601 52.335,374.726 51.625 L 374.952 50.333 373.518 50.334 L 372.083 50.334 371.596 51.105 C 370.481 52.870,369.406 52.872,364.417 51.116 C 361.891 50.228,359.093 49.990,356.295 50.425 M308.583 50.526 C 308.033 50.610,306.458 50.869,305.083 51.101 C 301.115 51.771,290.618 52.994,288.792 52.999 C 288.538 53.000,288.500 53.175,288.500 54.333 L 288.500 55.667 289.375 55.670 C 294.161 55.685,295.079 57.591,293.261 63.741 C 293.042 64.479,292.552 66.208,292.172 67.583 C 291.791 68.958,291.268 70.833,291.010 71.750 C 290.752 72.667,290.261 74.429,289.920 75.667 C 289.578 76.904,289.087 78.667,288.828 79.583 C 288.568 80.500,288.166 81.925,287.934 82.750 C 285.304 92.082,286.820 96.830,292.805 98.008 C 298.876 99.202,304.304 95.113,312.932 82.847 C 314.577 80.507,314.640 80.672,313.495 84.333 C 312.157 88.611,311.816 92.337,312.565 94.487 C 314.131 98.986,321.558 99.306,327.167 95.117 C 330.168 92.875,335.934 85.921,335.617 84.926 C 335.484 84.511,333.759 83.647,333.584 83.908 C 329.422 90.114,326.942 92.142,325.400 90.600 C 324.456 89.656,324.665 88.100,326.714 80.833 C 327.330 78.648,328.661 73.845,329.162 72.000 C 329.324 71.404,329.773 69.792,330.160 68.417 C 330.990 65.469,331.590 63.330,332.006 61.833 C 332.171 61.237,332.614 59.663,332.989 58.333 C 333.793 55.487,334.833 51.672,334.833 51.571 C 334.833 51.532,332.136 51.500,328.839 51.500 L 322.844 51.500 322.415 52.958 C 319.095 64.235,317.186 69.503,314.093 75.921 C 309.042 86.404,302.468 92.824,299.547 90.126 C 298.206 88.888,298.539 87.219,302.848 73.583 C 304.500 68.358,306.105 63.258,306.417 62.250 C 307.425 58.985,308.696 54.777,309.010 53.667 C 309.179 53.071,309.471 52.140,309.658 51.599 C 309.846 51.057,310.000 50.551,310.000 50.474 C 310.000 50.315,309.958 50.316,308.583 50.526 M80.000 53.807 C 84.234 56.795,79.082 68.879,71.833 72.958 C 70.237 73.856,65.189 75.634,64.941 75.385 C 64.737 75.182,67.337 67.134,68.465 64.476 C 72.019 56.100,76.880 51.605,80.000 53.807 M154.059 54.514 C 157.271 55.405,157.729 60.977,155.270 69.250 C 151.001 83.611,143.538 93.383,138.750 90.878 C 134.588 88.701,134.970 81.978,139.928 70.123 C 144.816 58.435,149.510 53.250,154.059 54.514 M263.409 54.518 C 266.714 55.436,267.142 60.745,264.604 69.333 C 260.335 83.777,252.731 93.580,247.964 90.787 C 244.182 88.570,244.372 82.464,248.551 71.917 C 253.646 59.061,258.653 53.198,263.409 54.518 M31.446 57.435 C 36.128 59.025,35.671 68.973,30.350 81.308 C 26.480 90.281,21.631 94.901,16.083 94.902 C 11.480 94.903,11.478 93.300,16.067 77.714 C 20.605 62.304,25.761 55.505,31.446 57.435 " stroke="none" fill="#0c0c0c" fill-rule="evenodd"></path><path id="path1" d="M0.018 45.958 C 0.029 72.471,0.098 91.604,0.181 91.179 C 0.261 90.773,0.510 89.798,0.735 89.012 C 0.960 88.226,1.456 86.458,1.838 85.083 C 2.219 83.708,2.702 81.983,2.911 81.250 C 3.120 80.517,3.569 78.904,3.908 77.667 C 4.248 76.429,4.737 74.667,4.995 73.750 C 5.801 70.885,6.469 68.496,7.090 66.250 C 7.420 65.058,7.903 63.333,8.163 62.417 C 8.423 61.500,8.863 59.925,9.141 58.917 C 9.716 56.829,10.666 53.420,11.255 51.333 C 11.474 50.554,11.924 48.942,12.255 47.750 C 13.645 42.742,13.894 41.852,14.260 40.583 C 16.425 33.077,15.815 31.837,9.958 31.834 L 9.000 31.833 9.000 30.443 L 9.000 29.052 12.792 28.607 C 19.313 27.841,18.921 27.896,25.917 26.763 C 30.534 26.014,30.500 26.018,30.500 26.266 C 30.500 26.380,30.249 27.361,29.942 28.445 C 29.635 29.529,29.065 31.617,28.676 33.083 C 28.287 34.550,27.799 36.350,27.591 37.083 C 27.383 37.817,26.970 39.317,26.673 40.417 C 26.375 41.517,25.918 43.204,25.656 44.167 C 25.394 45.129,24.906 46.929,24.572 48.167 C 23.514 52.085,23.028 53.859,22.422 56.005 C 21.700 58.566,21.694 58.743,22.362 57.817 C 27.563 50.596,36.782 48.081,42.711 52.267 C 50.056 57.450,48.815 72.535,40.108 83.917 C 32.760 93.522,24.577 98.182,14.583 98.452 C 8.414 98.618,1.417 96.061,0.137 93.172 C 0.074 93.032,0.018 101.298,0.012 111.542 L 0.000 130.167 199.833 130.167 L 399.667 130.167 399.667 65.193 L 399.667 0.220 394.890 0.110 C 392.262 0.050,302.337 0.000,195.056 0.000 L 0.000 0.000 0.018 45.958 M399.916 65.083 C 399.916 100.925,399.935 115.612,399.958 97.722 C 399.982 79.831,399.982 50.506,399.958 32.555 C 399.935 14.604,399.916 29.242,399.916 65.083 M206.728 28.125 C 205.225 33.796,204.945 34.857,204.584 36.250 C 204.370 37.075,203.921 38.762,203.585 40.000 C 203.250 41.237,202.754 43.110,202.485 44.161 C 202.215 45.213,201.884 46.450,201.750 46.911 C 201.616 47.373,201.273 48.650,200.988 49.750 C 200.704 50.850,200.222 52.688,199.918 53.833 C 199.614 54.979,199.089 56.967,198.752 58.250 C 198.084 60.791,197.447 63.170,196.752 65.722 C 196.188 67.793,196.201 67.797,197.592 65.977 C 200.847 61.723,203.080 59.058,205.232 56.860 C 210.291 51.694,214.649 49.635,219.139 50.289 C 223.849 50.976,225.810 53.588,225.626 58.928 C 225.538 61.479,225.510 61.593,223.500 67.667 C 222.969 69.271,221.321 74.296,219.837 78.833 C 218.354 83.371,216.996 87.515,216.820 88.042 C 216.436 89.192,216.424 89.536,216.742 90.151 C 217.898 92.387,220.845 90.088,225.234 83.527 C 225.889 82.548,225.994 82.537,227.156 83.326 C 228.390 84.164,228.391 84.023,227.125 85.853 C 226.552 86.681,225.971 87.526,225.833 87.731 C 219.643 96.952,212.466 100.423,206.895 96.891 C 202.798 94.293,203.310 90.134,210.332 69.000 C 213.694 58.880,213.709 58.775,211.895 57.973 C 209.751 57.025,206.864 58.643,203.475 62.692 C 196.836 70.625,194.232 76.053,189.415 92.000 C 189.068 93.146,188.577 94.758,188.323 95.583 L 187.862 97.083 181.597 97.127 C 175.503 97.169,175.333 97.162,175.333 96.849 C 175.333 96.672,175.585 95.639,175.892 94.555 C 176.199 93.471,176.731 91.571,177.074 90.333 C 177.417 89.096,177.870 87.483,178.081 86.750 C 178.291 86.017,178.743 84.404,179.085 83.167 C 180.262 78.903,180.862 76.745,181.331 75.083 C 181.590 74.167,182.030 72.592,182.307 71.583 C 182.934 69.310,183.892 65.875,184.423 64.000 C 184.643 63.221,185.094 61.608,185.424 60.417 C 185.754 59.225,186.235 57.500,186.492 56.583 C 186.749 55.667,187.238 53.904,187.578 52.667 C 187.919 51.429,188.370 49.817,188.581 49.083 C 188.791 48.350,189.242 46.737,189.581 45.500 C 189.920 44.262,190.375 42.649,190.592 41.915 C 193.138 33.292,192.804 32.073,187.833 31.845 L 185.750 31.750 185.702 30.375 C 185.675 29.619,185.694 29.000,185.744 29.000 C 185.794 29.000,187.128 28.856,188.709 28.680 C 190.290 28.503,192.146 28.311,192.833 28.251 C 194.322 28.122,199.337 27.356,203.167 26.672 C 204.679 26.402,206.104 26.150,206.333 26.113 C 207.358 25.946,207.335 25.831,206.728 28.125 M120.000 36.815 C 120.000 37.020,118.996 40.872,118.903 41.022 C 118.862 41.088,118.688 41.691,118.515 42.363 C 118.342 43.034,117.882 44.708,117.494 46.083 C 117.105 47.458,116.622 49.201,116.421 49.955 L 116.056 51.327 119.736 51.372 L 123.417 51.417 123.463 53.542 L 123.510 55.667 119.108 55.667 L 114.706 55.667 114.513 56.458 C 114.406 56.894,114.055 58.188,113.732 59.333 C 113.409 60.479,112.965 62.054,112.745 62.833 C 112.526 63.612,112.076 65.225,111.746 66.417 C 111.416 67.608,110.934 69.333,110.676 70.250 C 110.418 71.167,109.927 72.929,109.585 74.167 C 109.242 75.404,108.554 77.842,108.054 79.583 C 105.525 88.404,105.350 90.436,107.092 90.763 C 108.659 91.057,112.620 87.351,114.904 83.454 C 115.447 82.527,115.381 82.541,116.333 83.163 C 117.785 84.111,117.737 84.056,117.501 84.498 C 116.592 86.197,112.282 91.741,110.504 93.500 C 104.166 99.768,95.286 99.687,93.431 93.345 C 92.797 91.177,93.116 89.052,95.173 81.750 C 95.431 80.833,95.912 79.108,96.242 77.917 C 96.572 76.725,97.066 74.962,97.338 74.000 C 97.611 73.037,98.102 71.275,98.430 70.083 C 98.758 68.892,99.238 67.167,99.495 66.250 C 99.753 65.333,100.205 63.721,100.500 62.667 C 100.794 61.612,101.187 60.225,101.373 59.583 C 101.890 57.801,102.327 56.107,102.330 55.875 C 102.333 55.717,101.707 55.667,99.750 55.667 L 97.167 55.667 97.167 53.875 L 97.168 52.083 98.209 51.668 C 105.296 48.840,112.046 43.375,115.687 37.519 L 116.216 36.667 118.108 36.667 C 119.149 36.667,120.000 36.734,120.000 36.815 M83.411 50.499 C 92.754 52.888,93.379 62.704,84.669 70.233 C 79.882 74.372,74.326 76.869,66.833 78.250 C 64.007 78.771,64.230 78.632,64.016 80.000 C 62.793 87.839,64.951 91.750,70.500 91.750 C 74.287 91.750,77.523 89.583,80.852 84.817 C 82.591 82.328,82.241 82.516,83.677 83.304 C 85.783 84.461,85.764 84.075,83.861 86.924 C 78.368 95.150,73.180 98.412,65.583 98.415 C 53.628 98.421,47.370 87.969,51.354 74.652 C 53.417 67.756,59.627 58.887,64.858 55.367 C 65.090 55.211,65.928 54.648,66.721 54.116 C 71.686 50.783,78.636 49.277,83.411 50.499 M154.261 50.446 C 156.597 51.242,157.628 52.351,158.676 55.191 C 158.956 55.952,159.212 56.601,159.244 56.633 C 159.276 56.665,159.659 55.562,160.095 54.181 C 160.621 52.519,160.977 51.646,161.152 51.596 C 161.298 51.555,162.954 51.435,164.833 51.330 C 166.712 51.225,169.000 51.082,169.917 51.011 C 172.118 50.841,172.048 50.281,170.494 55.583 C 169.605 58.615,167.967 64.406,167.807 65.083 C 167.720 65.450,167.468 66.350,167.247 67.083 C 167.027 67.817,166.352 70.179,165.748 72.333 C 165.145 74.487,164.510 76.737,164.338 77.333 C 162.190 84.756,161.283 89.986,162.007 90.758 C 163.257 92.088,165.122 90.714,169.212 85.447 L 170.341 83.993 171.327 84.662 C 172.644 85.557,172.636 85.515,171.730 86.795 C 164.818 96.559,158.817 100.242,153.809 97.794 C 150.043 95.953,149.236 93.174,150.761 87.289 C 151.114 85.929,151.083 85.950,149.679 88.015 C 144.707 95.331,140.249 98.401,134.583 98.412 C 125.805 98.430,121.422 90.841,123.723 79.610 C 125.944 68.767,134.652 56.816,143.935 51.870 C 144.667 51.480,147.148 50.608,148.250 50.354 C 149.463 50.074,153.343 50.133,154.261 50.446 M264.554 50.818 C 266.378 51.745,267.336 53.045,268.302 55.906 L 268.629 56.876 268.868 56.063 C 269.699 53.243,270.277 51.658,270.500 51.593 C 270.637 51.554,272.287 51.435,274.167 51.330 C 276.046 51.225,278.333 51.082,279.250 51.011 C 281.328 50.851,281.252 50.752,280.649 52.836 C 279.784 55.822,279.210 57.835,278.582 60.083 C 277.975 62.257,277.424 64.192,276.508 67.375 C 276.102 68.786,274.949 72.870,273.556 77.833 C 271.473 85.258,270.672 89.884,271.327 90.708 C 272.414 92.077,274.128 90.954,277.665 86.556 C 278.612 85.379,279.470 84.323,279.573 84.209 C 279.720 84.047,280.001 84.174,280.860 84.792 L 281.959 85.584 280.896 87.067 C 273.327 97.631,266.938 100.904,261.697 96.902 C 259.354 95.113,258.794 92.203,259.966 87.917 C 260.471 86.071,260.522 85.669,260.168 86.330 C 258.618 89.227,254.437 93.995,251.799 95.874 C 244.445 101.114,235.074 98.228,233.059 90.102 C 231.132 82.333,234.453 71.214,241.272 62.603 C 246.319 56.231,250.637 52.700,255.447 51.011 C 258.547 49.922,262.621 49.836,264.554 50.818 M310.090 50.458 C 310.029 50.619,309.842 51.237,309.676 51.833 C 309.337 53.048,308.699 55.173,307.999 57.417 C 307.742 58.242,307.253 59.854,306.912 61.000 C 306.572 62.146,304.921 67.433,303.244 72.750 C 298.427 88.025,298.227 89.101,299.985 90.287 C 302.418 91.926,308.032 86.982,312.044 79.667 C 315.949 72.550,318.371 66.283,321.998 53.917 C 322.294 52.908,322.601 51.915,322.681 51.708 L 322.826 51.333 328.916 51.333 L 335.006 51.333 334.906 51.792 C 334.851 52.044,334.595 53.000,334.337 53.917 C 334.079 54.833,333.588 56.596,333.247 57.833 C 332.905 59.071,332.415 60.833,332.157 61.750 C 331.899 62.667,331.416 64.392,331.083 65.583 C 330.750 66.775,330.298 68.387,330.077 69.167 C 329.856 69.946,329.368 71.708,328.993 73.083 C 328.617 74.458,328.130 76.221,327.911 77.000 C 327.692 77.779,327.253 79.354,326.936 80.500 C 326.618 81.646,326.162 83.283,325.922 84.139 C 325.123 86.989,324.804 88.962,325.017 89.734 C 325.790 92.536,329.046 90.520,332.734 84.954 L 333.704 83.491 334.227 83.825 C 334.515 84.009,334.994 84.287,335.292 84.444 C 336.008 84.820,336.003 84.845,334.757 86.809 C 329.488 95.120,322.825 99.212,316.671 97.918 C 314.518 97.465,313.569 96.773,312.707 95.029 L 312.083 93.767 312.088 91.258 C 312.093 88.545,312.210 87.952,313.594 83.628 C 314.486 80.842,314.364 80.907,311.837 84.561 C 306.515 92.258,301.796 96.671,297.733 97.753 C 291.866 99.315,287.269 96.790,286.620 91.649 C 286.260 88.795,286.671 86.665,289.499 76.750 C 289.760 75.833,290.250 74.071,290.588 72.833 C 291.209 70.560,291.528 69.416,292.473 66.083 C 293.949 60.872,294.057 60.405,294.069 59.157 C 294.091 56.812,293.168 56.104,289.756 55.850 L 288.417 55.750 288.368 54.384 L 288.320 53.018 288.868 52.929 C 289.170 52.880,291.104 52.684,293.167 52.492 C 296.912 52.144,304.766 51.088,307.917 50.510 C 310.134 50.102,310.228 50.100,310.090 50.458 M365.059 51.218 C 369.641 52.783,370.673 52.692,371.766 50.625 C 372.003 50.176,372.041 50.167,373.523 50.167 L 375.037 50.167 374.944 50.708 C 374.892 51.006,374.804 51.625,374.748 52.083 C 374.537 53.800,372.687 65.703,372.622 65.765 C 372.601 65.785,371.983 65.753,371.250 65.692 L 369.917 65.583 369.654 64.250 C 368.660 59.202,366.618 55.763,363.738 54.285 C 358.606 51.652,353.674 55.885,355.667 61.212 C 356.214 62.674,357.380 64.287,362.514 70.684 C 368.415 78.036,369.971 81.614,369.374 86.462 C 368.194 96.044,358.333 100.817,347.286 97.151 C 343.716 95.966,342.789 96.063,341.736 97.731 L 341.250 98.499 339.875 98.500 C 338.887 98.500,338.500 98.441,338.498 98.292 C 338.497 98.177,338.646 97.071,338.828 95.833 C 339.011 94.596,339.428 91.633,339.756 89.250 C 340.720 82.249,340.809 81.636,340.873 81.571 C 340.907 81.538,341.530 81.564,342.257 81.630 L 343.580 81.750 343.965 84.000 C 344.829 89.044,346.414 91.824,349.603 93.887 C 355.417 97.648,361.502 92.805,358.674 86.667 C 357.599 84.333,355.928 82.005,351.673 76.917 C 350.370 75.358,348.976 73.623,348.574 73.061 C 340.543 61.816,346.093 50.033,359.333 50.218 L 362.250 50.259 365.059 51.218 M76.737 53.803 C 72.782 55.171,68.988 61.693,65.766 72.667 C 64.919 75.551,64.857 75.477,67.430 74.656 C 72.581 73.012,75.905 70.506,78.360 66.417 C 82.885 58.879,81.998 51.985,76.737 53.803 M150.774 54.847 C 147.110 56.333,143.215 62.073,139.472 71.500 C 135.426 81.690,134.968 87.491,137.993 90.223 C 142.277 94.094,149.777 85.552,154.432 71.500 C 158.456 59.352,156.919 52.353,150.774 54.847 M260.092 54.853 C 256.446 56.331,252.404 62.383,248.637 72.000 C 244.882 81.587,244.420 87.030,247.110 90.007 C 251.674 95.059,261.199 82.949,265.076 67.167 C 267.418 57.634,265.418 52.693,260.092 54.853 M28.667 57.313 C 23.590 58.377,19.666 65.320,15.184 81.167 C 11.659 93.630,11.802 95.060,16.542 94.792 C 23.269 94.411,29.239 86.709,33.052 73.489 C 36.090 62.955,34.244 56.145,28.667 57.313 " stroke="none" fill="#fbfbfb" fill-rule="evenodd"></path><path id="path2" d="M117.866 51.458 C 118.846 51.487,120.496 51.487,121.532 51.458 C 122.569 51.429,121.767 51.404,119.750 51.404 C 117.733 51.404,116.885 51.428,117.866 51.458 M322.776 51.458 C 322.705 51.572,327.255 51.569,332.750 51.452 C 333.942 51.427,332.202 51.390,328.885 51.370 C 325.567 51.350,322.818 51.390,322.776 51.458 M90.714 59.083 C 90.716 59.542,90.748 59.709,90.786 59.456 C 90.825 59.203,90.824 58.828,90.784 58.623 C 90.744 58.418,90.713 58.625,90.714 59.083 M34.542 64.083 C 34.544 64.450,34.578 64.580,34.618 64.373 C 34.658 64.166,34.656 63.866,34.615 63.706 C 34.573 63.547,34.540 63.717,34.542 64.083 M50.218 82.750 C 50.219 83.300,50.250 83.505,50.287 83.205 C 50.325 82.906,50.324 82.456,50.286 82.205 C 50.248 81.955,50.217 82.200,50.218 82.750 M77.906 88.375 L 77.417 88.917 77.958 88.427 C 78.463 87.971,78.577 87.833,78.448 87.833 C 78.419 87.833,78.175 88.077,77.906 88.375 M329.242 89.375 L 328.583 90.083 329.292 89.425 C 329.950 88.812,330.077 88.667,329.950 88.667 C 329.923 88.667,329.605 88.985,329.242 89.375 M312.055 91.583 C 312.055 92.225,312.086 92.467,312.122 92.121 C 312.158 91.775,312.157 91.250,312.120 90.955 C 312.083 90.659,312.054 90.942,312.055 91.583 M70.208 91.953 C 70.460 91.991,70.873 91.991,71.125 91.953 C 71.377 91.915,71.171 91.883,70.667 91.883 C 70.162 91.883,69.956 91.915,70.208 91.953 " stroke="none" fill="#9e9d9f" fill-rule="evenodd"></path><path id="path3" d="M188.708 28.782 C 188.869 28.823,189.131 28.823,189.292 28.782 C 189.452 28.740,189.321 28.705,189.000 28.705 C 188.679 28.705,188.548 28.740,188.708 28.782 M9.072 30.458 L 9.083 31.750 10.250 31.763 L 11.417 31.777 10.299 31.714 L 9.180 31.652 9.121 30.409 L 9.061 29.166 9.072 30.458 M117.208 36.790 C 117.735 36.823,118.598 36.823,119.125 36.790 C 119.652 36.757,119.221 36.730,118.167 36.730 C 117.112 36.730,116.681 36.757,117.208 36.790 M164.875 51.448 C 165.035 51.490,165.298 51.490,165.458 51.448 C 165.619 51.406,165.487 51.372,165.167 51.372 C 164.846 51.372,164.715 51.406,164.875 51.448 M274.208 51.448 C 274.369 51.490,274.631 51.490,274.792 51.448 C 274.952 51.406,274.821 51.372,274.500 51.372 C 274.179 51.372,274.048 51.406,274.208 51.448 M162.460 51.618 C 162.668 51.658,162.968 51.656,163.127 51.615 C 163.286 51.573,163.117 51.540,162.750 51.542 C 162.383 51.544,162.253 51.578,162.460 51.618 M271.794 51.618 C 272.001 51.658,272.301 51.656,272.460 51.615 C 272.620 51.573,272.450 51.540,272.083 51.542 C 271.717 51.544,271.586 51.578,271.794 51.618 M97.240 53.833 L 97.250 55.583 99.875 55.590 L 102.500 55.596 99.923 55.544 L 97.345 55.492 97.288 53.787 L 97.231 52.083 97.240 53.833 M288.392 54.333 C 288.392 55.112,288.420 55.431,288.455 55.042 C 288.490 54.652,288.490 54.015,288.455 53.625 C 288.420 53.235,288.392 53.554,288.392 54.333 M78.042 53.448 C 78.202 53.490,78.465 53.490,78.625 53.448 C 78.785 53.406,78.654 53.372,78.333 53.372 C 78.012 53.372,77.881 53.406,78.042 53.448 M360.460 53.451 C 360.668 53.491,360.968 53.490,361.127 53.448 C 361.286 53.406,361.117 53.374,360.750 53.375 C 360.383 53.377,360.253 53.411,360.460 53.451 M24.409 55.542 L 23.750 56.250 24.458 55.591 C 25.117 54.978,25.243 54.833,25.117 54.833 C 25.090 54.833,24.771 55.152,24.409 55.542 M74.073 55.375 L 73.583 55.917 74.125 55.427 C 74.630 54.971,74.743 54.833,74.615 54.833 C 74.586 54.833,74.342 55.077,74.073 55.375 M116.792 55.625 C 118.006 55.653,119.994 55.653,121.208 55.625 C 122.423 55.596,121.429 55.573,119.000 55.573 C 116.571 55.573,115.577 55.596,116.792 55.625 M205.406 56.708 L 204.917 57.250 205.458 56.760 C 205.963 56.304,206.077 56.167,205.948 56.167 C 205.919 56.167,205.675 56.410,205.406 56.708 M136.167 57.750 C 135.484 58.438,134.963 59.000,135.008 59.000 C 135.054 59.000,135.650 58.438,136.333 57.750 C 137.016 57.063,137.537 56.500,137.492 56.500 C 137.446 56.500,136.850 57.063,136.167 57.750 M245.667 57.583 C 245.262 57.996,244.968 58.333,245.014 58.333 C 245.060 58.333,245.428 57.996,245.833 57.583 C 246.238 57.171,246.532 56.833,246.486 56.833 C 246.440 56.833,246.072 57.171,245.667 57.583 M62.406 57.542 L 61.917 58.083 62.458 57.594 C 62.756 57.325,63.000 57.081,63.000 57.052 C 63.000 56.923,62.862 57.037,62.406 57.542 M81.372 57.667 C 81.372 57.987,81.406 58.119,81.448 57.958 C 81.490 57.798,81.490 57.535,81.448 57.375 C 81.406 57.215,81.372 57.346,81.372 57.667 M60.240 59.708 L 59.750 60.250 60.292 59.760 C 60.797 59.304,60.910 59.167,60.781 59.167 C 60.752 59.167,60.509 59.410,60.240 59.708 M266.214 59.917 C 266.216 60.375,266.248 60.543,266.286 60.289 C 266.325 60.036,266.324 59.661,266.284 59.456 C 266.244 59.251,266.213 59.458,266.214 59.917 M204.994 60.792 L 204.083 61.750 205.042 60.839 C 205.932 59.993,206.076 59.833,205.953 59.833 C 205.927 59.833,205.495 60.265,204.994 60.792 M344.892 62.500 C 344.892 63.279,344.920 63.598,344.955 63.208 C 344.990 62.819,344.990 62.181,344.955 61.792 C 344.920 61.402,344.892 61.721,344.892 62.500 M47.385 63.583 C 47.386 64.133,47.417 64.338,47.454 64.039 C 47.491 63.739,47.490 63.289,47.452 63.039 C 47.414 62.788,47.384 63.033,47.385 63.583 M341.960 81.785 C 342.168 81.824,342.468 81.823,342.627 81.781 C 342.786 81.739,342.617 81.707,342.250 81.709 C 341.883 81.711,341.753 81.745,341.960 81.785 M63.558 83.833 C 63.558 84.612,63.587 84.931,63.622 84.542 C 63.657 84.152,63.657 83.515,63.622 83.125 C 63.587 82.735,63.558 83.054,63.558 83.833 M135.892 84.917 C 135.892 85.742,135.920 86.100,135.955 85.713 C 135.990 85.327,135.990 84.652,135.956 84.213 C 135.922 83.775,135.893 84.092,135.892 84.917 M123.225 85.167 C 123.225 85.946,123.254 86.265,123.289 85.875 C 123.324 85.485,123.324 84.848,123.289 84.458 C 123.254 84.069,123.225 84.387,123.225 85.167 M245.221 85.083 C 245.222 85.725,245.252 85.967,245.288 85.621 C 245.324 85.275,245.324 84.750,245.287 84.455 C 245.250 84.159,245.221 84.442,245.221 85.083 M232.552 85.250 C 232.553 85.800,232.584 86.005,232.621 85.705 C 232.658 85.406,232.657 84.956,232.619 84.705 C 232.581 84.455,232.551 84.700,232.552 85.250 M274.991 89.792 L 274.417 90.417 275.042 89.842 C 275.623 89.308,275.743 89.167,275.616 89.167 C 275.588 89.167,275.307 89.448,274.991 89.792 M204.372 90.500 C 204.372 90.821,204.406 90.952,204.448 90.792 C 204.490 90.631,204.490 90.369,204.448 90.208 C 204.406 90.048,204.372 90.179,204.372 90.500 M24.000 91.250 C 23.595 91.662,23.301 92.000,23.347 92.000 C 23.393 92.000,23.762 91.662,24.167 91.250 C 24.572 90.837,24.865 90.500,24.819 90.500 C 24.774 90.500,24.405 90.837,24.000 91.250 M326.208 91.115 C 326.369 91.157,326.631 91.157,326.792 91.115 C 326.952 91.073,326.821 91.039,326.500 91.039 C 326.179 91.039,326.048 91.073,326.208 91.115 M140.208 91.282 C 140.369 91.323,140.631 91.323,140.792 91.282 C 140.952 91.240,140.821 91.205,140.500 91.205 C 140.179 91.205,140.048 91.240,140.208 91.282 M249.542 91.282 C 249.702 91.323,249.965 91.323,250.125 91.282 C 250.285 91.240,250.154 91.205,249.833 91.205 C 249.512 91.205,249.381 91.240,249.542 91.282 M329.911 92.708 L 328.917 93.750 329.958 92.755 C 330.531 92.208,331.000 91.739,331.000 91.714 C 331.000 91.590,330.836 91.741,329.911 92.708 M347.417 92.333 C 347.775 92.700,348.105 93.000,348.151 93.000 C 348.197 93.000,347.941 92.700,347.583 92.333 C 347.225 91.967,346.895 91.667,346.849 91.667 C 346.803 91.667,347.059 91.967,347.417 92.333 M365.740 93.875 L 365.250 94.417 365.792 93.927 C 366.297 93.471,366.410 93.333,366.281 93.333 C 366.252 93.333,366.009 93.577,365.740 93.875 M0.333 93.552 C 0.333 93.581,0.577 93.825,0.875 94.094 L 1.417 94.583 0.927 94.042 C 0.471 93.537,0.333 93.423,0.333 93.552 M15.711 94.953 C 15.964 94.991,16.339 94.990,16.544 94.951 C 16.749 94.911,16.542 94.880,16.083 94.881 C 15.625 94.882,15.457 94.915,15.711 94.953 M338.542 98.167 C 338.595 98.362,338.914 98.419,340.013 98.428 L 341.417 98.440 340.088 98.379 C 339.309 98.343,338.701 98.235,338.617 98.117 C 338.516 97.975,338.494 97.990,338.542 98.167 M12.958 98.457 C 13.531 98.489,14.469 98.489,15.042 98.457 C 15.615 98.424,15.146 98.398,14.000 98.398 C 12.854 98.398,12.385 98.424,12.958 98.457 M64.625 98.456 C 65.106 98.490,65.894 98.490,66.375 98.456 C 66.856 98.423,66.462 98.395,65.500 98.395 C 64.537 98.395,64.144 98.423,64.625 98.456 M133.792 98.455 C 134.181 98.490,134.819 98.490,135.208 98.455 C 135.598 98.420,135.279 98.392,134.500 98.392 C 133.721 98.392,133.402 98.420,133.792 98.455 M156.288 98.454 C 156.584 98.490,157.109 98.491,157.455 98.455 C 157.800 98.419,157.558 98.389,156.917 98.388 C 156.275 98.387,155.992 98.417,156.288 98.454 M243.125 98.455 C 243.515 98.490,244.152 98.490,244.542 98.455 C 244.931 98.420,244.612 98.392,243.833 98.392 C 243.054 98.392,242.735 98.420,243.125 98.455 M265.621 98.454 C 265.917 98.490,266.442 98.491,266.788 98.455 C 267.134 98.419,266.892 98.389,266.250 98.388 C 265.608 98.387,265.325 98.417,265.621 98.454 M353.297 98.456 C 353.782 98.490,354.532 98.490,354.964 98.456 C 355.396 98.421,355.000 98.394,354.083 98.394 C 353.167 98.395,352.813 98.423,353.297 98.456 " stroke="none" fill="#7c7c7c" fill-rule="evenodd"></path><path id="path4" d="M396.458 0.125 L 399.666 0.174 399.708 65.212 L 399.750 130.250 399.792 65.125 L 399.833 0.000 396.542 0.038 L 393.250 0.076 396.458 0.125 M185.740 30.417 L 185.750 31.750 186.917 31.761 L 188.083 31.772 186.965 31.712 L 185.847 31.652 185.788 30.368 L 185.730 29.083 185.740 30.417 M110.828 43.458 L 109.917 44.417 110.875 43.506 C 111.402 43.005,111.833 42.573,111.833 42.547 C 111.833 42.424,111.674 42.568,110.828 43.458 M35.292 50.289 C 35.681 50.324,36.319 50.324,36.708 50.289 C 37.098 50.254,36.779 50.225,36.000 50.225 C 35.221 50.225,34.902 50.254,35.292 50.289 M217.129 50.289 C 217.521 50.324,218.121 50.324,218.463 50.288 C 218.804 50.252,218.483 50.223,217.750 50.224 C 217.017 50.224,216.737 50.254,217.129 50.289 M371.942 50.292 C 371.899 50.360,372.363 50.396,372.974 50.371 C 374.907 50.291,375.134 50.221,373.552 50.193 C 372.709 50.179,371.985 50.223,371.942 50.292 M166.208 51.282 C 166.369 51.323,166.631 51.323,166.792 51.282 C 166.952 51.240,166.821 51.205,166.500 51.205 C 166.179 51.205,166.048 51.240,166.208 51.282 M275.542 51.282 C 275.702 51.323,275.965 51.323,276.125 51.282 C 276.285 51.240,276.154 51.205,275.833 51.205 C 275.512 51.205,275.381 51.240,275.542 51.282 M123.398 53.583 C 123.398 54.775,123.425 55.241,123.457 54.618 C 123.489 53.996,123.489 53.021,123.457 52.451 C 123.424 51.882,123.398 52.392,123.398 53.583 M44.000 53.417 C 44.311 53.737,44.603 54.000,44.649 54.000 C 44.695 54.000,44.478 53.737,44.167 53.417 C 43.856 53.096,43.564 52.833,43.518 52.833 C 43.472 52.833,43.689 53.096,44.000 53.417 M348.333 54.083 C 347.928 54.496,347.635 54.833,347.681 54.833 C 347.726 54.833,348.095 54.496,348.500 54.083 C 348.905 53.671,349.199 53.333,349.153 53.333 C 349.107 53.333,348.738 53.671,348.333 54.083 M152.375 54.448 C 152.535 54.490,152.798 54.490,152.958 54.448 C 153.119 54.406,152.987 54.372,152.667 54.372 C 152.346 54.372,152.215 54.406,152.375 54.448 M261.875 54.448 C 262.035 54.490,262.298 54.490,262.458 54.448 C 262.619 54.406,262.487 54.372,262.167 54.372 C 261.846 54.372,261.715 54.406,261.875 54.448 M207.073 55.042 L 206.583 55.583 207.125 55.094 C 207.630 54.638,207.743 54.500,207.615 54.500 C 207.586 54.500,207.342 54.744,207.073 55.042 M147.575 57.042 L 146.917 57.750 147.625 57.091 C 148.284 56.478,148.410 56.333,148.284 56.333 C 148.257 56.333,147.938 56.652,147.575 57.042 M156.725 60.000 C 156.725 60.779,156.754 61.098,156.789 60.708 C 156.824 60.319,156.824 59.681,156.789 59.292 C 156.754 58.902,156.725 59.221,156.725 60.000 M24.491 59.792 L 23.917 60.417 24.542 59.842 C 25.123 59.308,25.243 59.167,25.116 59.167 C 25.088 59.167,24.807 59.448,24.491 59.792 M86.077 68.875 L 85.250 69.750 86.125 68.923 C 86.606 68.468,87.000 68.074,87.000 68.048 C 87.000 67.924,86.846 68.062,86.077 68.875 M75.573 70.042 L 75.083 70.583 75.625 70.094 C 76.130 69.638,76.243 69.500,76.115 69.500 C 76.086 69.500,75.842 69.744,75.573 70.042 M369.390 84.917 C 369.391 85.650,369.420 85.929,369.456 85.537 C 369.491 85.145,369.490 84.545,369.454 84.204 C 369.419 83.863,369.390 84.183,369.390 84.917 M35.833 88.750 C 35.428 89.162,35.135 89.500,35.181 89.500 C 35.226 89.500,35.595 89.162,36.000 88.750 C 36.405 88.337,36.699 88.000,36.653 88.000 C 36.607 88.000,36.238 88.337,35.833 88.750 M145.073 88.708 L 144.583 89.250 145.125 88.760 C 145.423 88.491,145.667 88.248,145.667 88.219 C 145.667 88.090,145.529 88.203,145.073 88.708 M359.379 89.833 C 359.379 90.246,359.411 90.415,359.451 90.208 C 359.491 90.002,359.491 89.665,359.451 89.458 C 359.411 89.252,359.379 89.421,359.379 89.833 M312.039 90.000 C 312.039 90.321,312.073 90.452,312.115 90.292 C 312.157 90.131,312.157 89.869,312.115 89.708 C 312.073 89.548,312.039 89.679,312.039 90.000 M146.158 92.458 L 145.583 93.083 146.208 92.509 C 146.790 91.974,146.910 91.833,146.783 91.833 C 146.755 91.833,146.474 92.115,146.158 92.458 M305.573 92.375 L 305.083 92.917 305.625 92.427 C 306.130 91.971,306.243 91.833,306.115 91.833 C 306.086 91.833,305.842 92.077,305.573 92.375 M53.667 93.385 C 53.667 93.414,53.910 93.658,54.208 93.927 L 54.750 94.417 54.260 93.875 C 53.804 93.370,53.667 93.257,53.667 93.385 M144.573 94.042 L 144.083 94.583 144.625 94.094 C 144.923 93.825,145.167 93.581,145.167 93.552 C 145.167 93.423,145.029 93.537,144.573 94.042 M181.583 97.000 L 175.250 97.089 181.532 97.128 C 185.582 97.153,187.850 97.107,187.917 97.000 C 187.973 96.908,187.996 96.851,187.968 96.872 C 187.940 96.893,185.067 96.951,181.583 97.000 " stroke="none" fill="#c8c8c8" fill-rule="evenodd"></path></g></svg>