<?xml version="1.0" encoding="UTF-8" standalone="no"?>
<!-- Generator: Adobe Illustrator 18.0.0, SVG Export Plug-In . SVG Version: 6.00 Build 0)  -->

<svg
   xmlns:dc="http://purl.org/dc/elements/1.1/"
   xmlns:cc="http://creativecommons.org/ns#"
   xmlns:rdf="http://www.w3.org/1999/02/22-rdf-syntax-ns#"
   xmlns:svg="http://www.w3.org/2000/svg"
   xmlns="http://www.w3.org/2000/svg"
   xmlns:sodipodi="http://sodipodi.sourceforge.net/DTD/sodipodi-0.dtd"
   xmlns:inkscape="http://www.inkscape.org/namespaces/inkscape"
   version="1.1"
   id="Ebene_1"
   x="0px"
   y="0px"
   viewBox="0 0 200 65"
   enable-background="new 0 0 200 65"
   xml:space="preserve"
   inkscape:version="0.48.4 r9939"
   width="100%"
   height="100%"
   sodipodi:docname="logo.svg"><metadata
     id="metadata176"><rdf:RDF><cc:Work
         rdf:about=""><dc:format>image/svg+xml</dc:format><dc:type
           rdf:resource="http://purl.org/dc/dcmitype/StillImage" /></cc:Work></rdf:RDF></metadata><defs
     id="defs174" /><sodipodi:namedview
     pagecolor="#ffffff"
     bordercolor="#666666"
     borderopacity="1"
     objecttolerance="10"
     gridtolerance="10"
     guidetolerance="10"
     inkscape:pageopacity="0"
     inkscape:pageshadow="2"
     inkscape:window-width="2015"
     inkscape:window-height="1128"
     id="namedview172"
     showgrid="false"
     inkscape:zoom="4.5820519"
     inkscape:cx="192.53787"
     inkscape:cy="16.121791"
     inkscape:window-x="33"
     inkscape:window-y="24"
     inkscape:window-maximized="1"
     inkscape:current-layer="Ebene_1" /><linearGradient
     id="SVGID_1_"
     gradientUnits="userSpaceOnUse"
     x1="47.799"
     y1="65.9715"
     x2="48.5171"
     y2="19.1695"><stop
       offset="0"
       style="stop-color:#14377D"
       id="stop8" /><stop
       offset="1"
       style="stop-color:#009ADA"
       id="stop10" /></linearGradient><path
     fill="url(#SVGID_1_)"
     d="M17.4,46.1c-1.3,2-3.3,3.7-6.6,3.7c-4.9,0-8.7-3.5-8.7-8.5c0-5.1,3.8-8.5,8.7-8.5  c3.3,0,5.4,1.7,6.6,3.7l-2.4,1.3c-0.8-1.4-2.4-2.4-4.2-2.4c-3.3,0-5.7,2.5-5.7,6c0,3.4,2.4,6,5.7,6c1.8,0,3.4-1,4.2-2.4L17.4,46.1z   M26.6,33l6.5,16.5h-3.3l-1.2-3.2H21l-1.2,3.2h-3.3L23,33H26.6z M27.8,43.8l-3-7.9l-3,7.9H27.8z M42.2,44.3L37.7,33h-4.1v16.5h2.9  V36.8l5.1,12.7h1.2l5-12.7v12.7h2.9V33h-4.1L42.2,44.3z M65.3,38.2c0,2.8-1.9,5.1-5.4,5.1h-4.4v6.2h-2.9V33H60  C63.4,33,65.3,35.4,65.3,38.2z M62.4,38.2c0-1.6-1.2-2.6-2.8-2.6h-4v5.2h4C61.2,40.8,62.4,39.7,62.4,38.2z M77.5,42.9  c0,2.6-1.5,4.3-4.2,4.3c-2.7,0-4.2-1.7-4.2-4.3V33h-2.9v10c0,4.1,2.4,6.8,7.2,6.8c4.8,0,7.2-2.7,7.2-6.8V33h-2.9V42.9z M84.6,37.4  c0-1.2,1.1-2.1,2.8-2.1c1.7,0,3.5,0.6,4.8,1.9l1.6-2.2c-1.5-1.5-3.6-2.3-6.2-2.3c-3.6,0-6,2.1-6,4.9c0,6.1,9.6,3.9,9.6,7.4  c0,1.1-0.9,2.3-3.3,2.3c-2.3,0-4.1-1.1-5.2-2.3l-1.6,2.3c1.5,1.5,3.7,2.6,6.7,2.6c4.4,0,6.4-2.4,6.4-5.1  C94.2,38.6,84.6,40.5,84.6,37.4z"
     id="path12" /><linearGradient
     id="SVGID_2_"
     gradientUnits="userSpaceOnUse"
     x1="145.348"
     y1="50.4973"
     x2="145.627"
     y2="32.3153"><stop
       offset="0"
       style="stop-color:#1C2B39"
       id="stop15" /><stop
       offset="1"
       style="stop-color:#495965"
       id="stop17" /></linearGradient><path
     fill="url(#SVGID_2_)"
     d="M97.8,37.4c0-1.2,1.1-2.1,2.8-2.1c1.7,0,3.5,0.6,4.8,1.9l1.6-2.2c-1.5-1.5-3.6-2.3-6.2-2.3  c-3.6,0-6,2.1-6,4.9c0,6.1,9.6,3.9,9.6,7.4c0,1.1-0.9,2.3-3.3,2.3c-2.3,0-4.1-1.1-5.2-2.3l-1.6,2.3c1.5,1.5,3.7,2.6,6.7,2.6  c4.4,0,6.4-2.4,6.4-5.1C107.4,38.6,97.8,40.5,97.8,37.4z M121.1,38.2c0,2.8-1.9,5.1-5.4,5.1h-4.4v6.2h-2.9V33h7.3  C119.2,33,121.1,35.4,121.1,38.2z M118.1,38.2c0-1.6-1.2-2.6-2.8-2.6h-4v5.2h4C116.9,40.8,118.1,39.7,118.1,38.2z M121.9,49.5h11.3  V47h-8.4v-4.6h8.2v-2.5h-8.2v-4.3h8.4V33h-11.3V49.5z M134.6,49.5h2.9V33h-2.9V49.5z M147.4,47.2c-3.3,0-5.7-2.5-5.7-6  c0-3.5,2.4-6,5.7-6c1.8,0,3.4,1,4.2,2.4l2.4-1.3c-1.2-2-3.3-3.7-6.6-3.7c-4.9,0-8.7,3.4-8.7,8.5c0,5.1,3.8,8.5,8.7,8.5  c3.3,0,5.4-1.8,6.6-3.7l-2.5-1.2C150.7,46.2,149.1,47.2,147.4,47.2z M166.2,39.7h-8.6V33h-2.9v16.5h2.9v-7.2h8.6v7.2h2.9V33h-2.9  V39.7z M171,49.5h11.3V47h-8.4v-4.6h8.2v-2.5h-8.2v-4.3h8.4V33H171V49.5z M196.5,49.5h-3.4l-3.6-6.2h-2.9v6.2h-2.9V33h7.3  c3.3,0,5.4,2.1,5.4,5.2c0,2.9-1.9,4.5-3.9,4.9L196.5,49.5z M190.6,40.8c1.6,0,2.8-1,2.8-2.6c0-1.6-1.2-2.6-2.8-2.6h-4v5.2H190.6z"
     id="path19" /><g
     id="g21"><path
       fill="#A1ABB2"
       d="M115.4,61v-4.2H110V61h-1.1v-9.2h1.1v3.9h5.4v-3.9h1.1V61H115.4z"
       id="path23" /><path
       fill="#A1ABB2"
       d="M117.3,57.7c0-1.9,1.3-3.5,3.3-3.5s3.3,1.6,3.3,3.5c0,1.9-1.3,3.5-3.3,3.5S117.3,59.6,117.3,57.7z    M122.8,57.7c0-1.3-0.8-2.6-2.2-2.6c-1.4,0-2.2,1.2-2.2,2.6c0,1.4,0.8,2.6,2.2,2.6C122,60.2,122.8,59,122.8,57.7z"
       id="path25" /><path
       fill="#A1ABB2"
       d="M124.1,60.1l0.5-0.7c0.4,0.5,1.3,0.9,2.2,0.9c1,0,1.6-0.5,1.6-1.1c0-1.6-4.1-0.6-4.1-3.1   c0-1,0.9-1.9,2.5-1.9c1.1,0,1.9,0.4,2.5,1l-0.5,0.7c-0.4-0.5-1.1-0.8-2-0.8c-0.9,0-1.5,0.5-1.5,1c0,1.4,4.1,0.5,4.1,3.1   c0,1.1-0.9,2-2.6,2C125.7,61.1,124.8,60.8,124.1,60.1z"
       id="path27" /><path
       fill="#A1ABB2"
       d="M130.4,59.6v-4.3h-1.1v-0.9h1.1v-1.8h1v1.8h1.3v0.9h-1.3v4.1c0,0.5,0.2,0.9,0.7,0.9c0.3,0,0.6-0.1,0.7-0.3   l0.3,0.8c-0.3,0.2-0.6,0.4-1.2,0.4C130.9,61.1,130.4,60.6,130.4,59.6z"
       id="path29" /><path
       fill="#A1ABB2"
       d="M133.2,52.7c0-0.4,0.3-0.7,0.7-0.7c0.4,0,0.7,0.3,0.7,0.7c0,0.4-0.3,0.7-0.7,0.7   C133.5,53.4,133.2,53.1,133.2,52.7z M133.3,61v-6.6h1V61H133.3z"
       id="path31" /><path
       fill="#A1ABB2"
       d="M140,61v-4.3c0-1.2-0.6-1.5-1.5-1.5c-0.8,0-1.6,0.5-2,1V61h-1v-6.6h1v1c0.5-0.6,1.4-1.1,2.4-1.1   c1.4,0,2.1,0.7,2.1,2.1V61H140z"
       id="path33" /><path
       fill="#A1ABB2"
       d="M142.2,62.7l0.5-0.7c0.5,0.6,1.2,0.9,2.2,0.9c1.1,0,2.1-0.5,2.1-1.9v-1c-0.5,0.7-1.3,1.2-2.2,1.2   c-1.7,0-3-1.3-3-3.4c0-2.1,1.2-3.4,3-3.4c0.9,0,1.7,0.4,2.2,1.2v-1h1v6.5c0,2.1-1.6,2.8-3.2,2.8C143.8,63.7,143,63.4,142.2,62.7z    M147,59.1v-2.9c-0.4-0.6-1.2-1.1-2-1.1c-1.3,0-2.1,1.1-2.1,2.5c0,1.5,0.8,2.5,2.1,2.5C145.9,60.1,146.7,59.6,147,59.1z"
       id="path35" /><path
       fill="#A1ABB2"
       d="M159.9,61v-4.5c0-0.8-0.4-1.4-1.2-1.4c-0.7,0-1.4,0.5-1.8,1V61h-1v-4.5c0-0.8-0.3-1.4-1.2-1.4   c-0.7,0-1.4,0.5-1.7,1V61h-1v-6.6h1v1c0.3-0.4,1.2-1.1,2.2-1.1c1,0,1.6,0.5,1.8,1.2c0.4-0.6,1.3-1.2,2.2-1.2c1.2,0,1.9,0.7,1.9,2   V61H159.9z"
       id="path37" /><path
       fill="#A1ABB2"
       d="M162,52.7c0-0.4,0.3-0.7,0.7-0.7c0.4,0,0.7,0.3,0.7,0.7c0,0.4-0.3,0.7-0.7,0.7   C162.3,53.4,162,53.1,162,52.7z M162.1,61v-6.6h1V61H162.1z"
       id="path39" /><path
       fill="#A1ABB2"
       d="M164.6,59.6v-4.3h-1.1v-0.9h1.1v-1.8h1v1.8h1.3v0.9h-1.3v4.1c0,0.5,0.2,0.9,0.7,0.9c0.3,0,0.6-0.1,0.7-0.3   l0.3,0.8c-0.3,0.2-0.6,0.4-1.2,0.4C165,61.1,164.6,60.6,164.6,59.6z"
       id="path41" /><path
       fill="#A1ABB2"
       d="M169.9,56.4c0-2.9,2.1-4.7,4.7-4.7c1.6,0,2.8,0.7,3.6,1.7l-0.9,0.6c-0.6-0.7-1.6-1.3-2.6-1.3   c-2,0-3.5,1.5-3.5,3.7c0,2.2,1.5,3.7,3.5,3.7c1.1,0,2-0.5,2.5-1v-1.9h-3.2v-1h4.3v3.3c-0.9,1-2.1,1.6-3.6,1.6   C172,61.2,169.9,59.2,169.9,56.4z"
       id="path43" /><path
       fill="#A1ABB2"
       d="M178.7,57.7c0-1.9,1.4-3.5,3.3-3.5c2,0,3.2,1.6,3.2,3.6V58h-5.4c0.1,1.2,0.9,2.3,2.4,2.3   c0.8,0,1.5-0.3,2.1-0.9l0.5,0.7c-0.7,0.7-1.6,1-2.6,1C180.1,61.1,178.7,59.7,178.7,57.7z M182,55c-1.4,0-2.1,1.2-2.2,2.2h4.3   C184.1,56.3,183.5,55,182,55z"
       id="path45" /><path
       fill="#A1ABB2"
       d="M185.8,52.7c0-0.4,0.3-0.7,0.7-0.7c0.4,0,0.7,0.3,0.7,0.7c0,0.4-0.3,0.7-0.7,0.7   C186.1,53.4,185.8,53.1,185.8,52.7z M185.9,61v-6.6h1V61H185.9z"
       id="path47" /><path
       fill="#A1ABB2"
       d="M187.6,60.1l0.5-0.7c0.4,0.5,1.3,0.9,2.2,0.9c1,0,1.6-0.5,1.6-1.1c0-1.6-4.1-0.6-4.1-3.1   c0-1,0.9-1.9,2.5-1.9c1.1,0,1.9,0.4,2.5,1l-0.5,0.7c-0.4-0.5-1.1-0.8-2-0.8c-0.9,0-1.5,0.5-1.5,1c0,1.4,4.1,0.5,4.1,3.1   c0,1.1-0.9,2-2.6,2C189.2,61.1,188.3,60.8,187.6,60.1z"
       id="path49" /><path
       fill="#A1ABB2"
       d="M193.8,59.6v-4.3h-1.1v-0.9h1.1v-1.8h1v1.8h1.3v0.9h-1.3v4.1c0,0.5,0.2,0.9,0.7,0.9c0.3,0,0.6-0.1,0.7-0.3   l0.3,0.8c-0.3,0.2-0.6,0.4-1.2,0.4C194.3,61.1,193.8,60.6,193.8,59.6z"
       id="path51" /><path
       fill="#A1ABB2"
       d="M196.6,60.4c0-0.4,0.3-0.8,0.8-0.8c0.4,0,0.8,0.3,0.8,0.8c0,0.4-0.3,0.8-0.8,0.8   C196.9,61.1,196.6,60.8,196.6,60.4z"
       id="path53" /></g><linearGradient
     id="SVGID_3_"
     gradientUnits="userSpaceOnUse"
     x1="64.0112"
     y1="43.9171"
     x2="94.3854"
     y2="-4.8342"><stop
       offset="0"
       style="stop-color:#14377D"
       id="stop56" /><stop
       offset="1"
       style="stop-color:#009ADA"
       id="stop58" /></linearGradient><path
     fill="url(#SVGID_3_)"
     d="M83.3,3C82,3.7,79.6,5,77,7.7c-4.1,4.1-7.7,11.8-6.1,17.7c2.2,8.2,12,1.1,16.6-2.5l0-0.1  c-2.2,1.3-5.1,1.4-7.6,0.2c-6.1-3.2-3.4-11.5-1.3-14.7C80.4,5.4,82.1,4,83.3,3L83.3,3z"
     id="path60" /></svg>