<svg xmlns="http://www.w3.org/2000/svg" version="1" viewBox="0 0 902 225"><path d="M798 21.2c-14.9 25.8-37.8 65.1-60.9 104.6a725.2 725.2 0 0 0-17.1 30.3c0 .5 35.8.9 91 .9 77.1 0 91-.2 91-1.4a90 90 0 0 0-6.9-13.2l-33-56.9-30.3-52.2A436.5 436.5 0 0 0 811.4 0c-.6 0-6.6 9.6-13.4 21.2zm26 32.3a6318.7 6318.7 0 0 0 46.3 79.7l4.6 7.8H763.8l2-3.3 4.2-7.2 16-27.5 15.7-27c3.7-6.6 13.5-23.5 15.5-26.8 2.3-3.8 2.4-3.8 6.8 4.3zM255 121.4a45.8 45.8 0 0 0-25.6 14 50.5 50.5 0 0 0-15.4 38.3c-.1 24.7 11.7 43.1 31.9 49.8 4 1.3 8 1.6 18.8 1.3 13.7-.3 13.8-.3 21.5-4.1a51.5 51.5 0 0 0 27.8-48.1c0-21.4-8.8-37.9-24.6-46.3a54.7 54.7 0 0 0-34.4-4.9zm20.1 13.2c16.1 5.2 24.5 28 19.4 52.4-3.3 15.5-10.8 23.5-24.5 26-11.8 2.1-24.6-2.4-30.4-10.9-8.2-11.8-9.8-37.2-3.3-51.5 7-15.3 22-21.5 38.8-16zM430 121.4c-10 1.8-19 6.8-26.3 14.5a52.8 52.8 0 0 0-14.4 42.2 48.7 48.7 0 0 0 13.6 34.2c9.8 10.2 17.9 13 36.8 12.5 13.1-.3 14.1-.5 20.6-3.5a52.1 52.1 0 0 0 26.6-31.7 65.6 65.6 0 0 0-5-46.8c-4-6.8-5.3-8.2-11.6-12.9a45.7 45.7 0 0 0-23.5-8.9c-9.4-1.1-8.3-1.2-16.8.4zm20.1 13.1c13.2 4.4 20.9 18.7 20.9 38.9 0 22.8-9.1 36.8-25.7 39.5-16.3 2.8-29.6-4.5-34.9-19a74.2 74.2 0 0 1 .5-42c6-15.9 22.1-23 39.2-17.4zM542.8 121a53.7 53.7 0 0 0-41.7 27 47.8 47.8 0 0 0-6.1 25.9c0 24.8 12.1 42.7 33.2 49.2a128 128 0 0 0 57.1-2.6c1.5-.7 1.7-2.7 1.7-22.1V177h-17v33.9l-3.7.8c-2.1.4-8.7.8-14.8.7-9.5-.1-11.8-.4-16.5-2.6a31.3 31.3 0 0 1-18.6-20.8 51 51 0 0 1-1.9-18c0-12 .2-12.7 3.3-19.2 5-10.3 13.6-16.1 27.1-18 6.6-1 9.2-.9 16.7.6 4.9.9 11.5 3 14.7 4.5l5.9 2.8 3.1-6.5c2.9-6.1 3-6.5 1.3-7.8A73.4 73.4 0 0 0 562 121c-10.4-1.1-9.7-1.1-19.2 0zM664.5 121.9c-10.7 3-20.2 11.3-22.5 19.6-3.5 12.3.2 21.8 11.5 29.4 2.2 1.5 9 4.9 15.1 7.5 16.6 7.1 22 13.5 19.4 22.7-2.3 7.9-8.8 11.3-21.5 11.2-7.4 0-10.2-.5-15.4-2.7-3.6-1.4-6.8-2.3-7.1-1.9-.4.5-1.6 3.2-2.8 6l-2.1 5.3 2.2 1.2a48.8 48.8 0 0 0 24.4 4.8 37 37 0 0 0 18-2.7c16-6.4 24.8-23 19.8-37.3-3.4-9.5-9.7-14.6-28.5-23-13.9-6.1-18.1-9.8-18.2-15.7-.1-7.2 3.2-10.6 11.9-12.2 6-1.2 15.9.6 21.7 3.9 2.2 1.2 4.2 1.8 4.6 1.3.9-1.1 5-10.9 5-12.1 0-.5-2.6-1.9-5.7-3.2a76 76 0 0 0-29.8-2.1zM46 122.9l-6.5.6-.3 50.3L39 224h14V144.7l2.8 4c1.5 2.2 15.1 20.3 30.2 40.1l27.5 36.1 6.3.1h6.2V123h-15l-.2 35.9-.3 35.8-27-36.3c-21-28.4-27.4-36.4-29-36.2l-8.5.7zM0 173.5V224h16V123H0v50.5zM148 173.5V224h17v-45h39v-13.1l-19.5.3-19.5.3V136h44v-13h-61v50.5zM329 173.5V224h60.8l.6-4.8c.4-2.6.9-5.5 1.2-6.4.5-1.6-1.2-1.8-22.3-2l-22.8-.3-.5-43.5-.5-43.5-8.2-.3-8.3-.3v50.6zM607 173.5V224h17V123h-17v50.5z"/></svg>