<svg xmlns="http://www.w3.org/2000/svg" id="RZ" viewBox="0 0 1417.3 283.5"><defs/><path d="M1222.5 277.5h55V58.7h47.3v218.8h55.1V58.7h37.4V3H1185v55.7h37.5v218.8zM798.6 277.5h52.7V106.7h1.1L881 277.5h50.3l28.9-171.8h1.1v171.8h53.1V3H939l-31.3 199.5h-1.5L873.3 3h-74.7v274.5zM1150.4 3h-75.7l-42.3 274.5h54l7.6-59h35.7l6.4 59h54zm-52 178l13.9-121.7h1.6l11.9 121.8zM0 281.8h25.4c54.3 0 75.7-17.7 75.7-64.7V3H45.7v205.1c0 16.3-8.7 23.7-23.7 24l-22 .3zM200.1 283.1c48 0 70.4-13 70.4-66V3h-55v205.4c0 19.7-4.3 24-15.3 24-11.4 0-15.7-4.3-15.7-24V3h-55v214.1c0 53 22.3 66 70.6 66zM550.7 283.5c49.4 0 68-19.4 68-66v-99.8h-70v37.7h16v61.7c0 11-4.7 15.3-16 15.3s-15.7-4.3-15.7-15.3V67c0-11 4.3-15.3 15.7-15.3s16 4.3 16 15.3v16.4h54V66.7C618.7 20 600 0 547.4 0c-50 0-69 20-69 66.7v150.7c0 46.7 19 66 72.3 66zM298.9 277.5h52.6V120.9h.7l38.7 156.6h60.6V3.1h-53V168h-.6l-38-164.9h-61v274.4zM674.2 277.5h69.6L771 117.8h-46.5l-15.4 118.6h-.9l-15.1-118.6h-46.8l27.9 159.7z" class="cls-1"/></svg>