<svg xmlns="http://www.w3.org/2000/svg" viewBox="0 0 501.6 501.6"><path fill="#40596b" d="M480.7 78.4H20.9A21 21 0 0 0 0 99.3v311.3a21 21 0 0 0 20.9 21h459.8a21 21 0 0 0 20.9-21V99.3a21 21 0 0 0-21-21z"/><path fill="#fff" d="M31.3 109.7h438.9v289.4H31.3z"/><path fill="#cdd6e0" d="M154.6 431.5h191.2v56.4H154.6z"/><path fill="#f2f2f2" d="M97.2 488h307.2v13.6H97.2z"/><path fill="#acb3ba" d="M154.6 431.5h191.2v15.7H154.6z"/><path fill="#f2f2f2" d="M432.6 117v265.4c0 9.4-7.3 16.8-16.7 16.8H84.6c-9.4 0-16.7-7.4-16.7-16.8V117h364.7z"/><g fill="#fff"><path d="M252.9 191.2V231h-4.2v-39.7h4.2zM252.9 343.8v39.7h-4.2v-39.7h4.2zM319.7 220.5l-28.2 28.2-3.1-3.1 28.2-28.3 3.1 3.2zM212.1 329.1L184 357.4l-3.1-3.2L209 326l3.1 3.1zM347 285.3v4.1h-38.8v-2-2.1H347zM194.4 287.3v2.1h-38.7v-4.1h38.7v2zM319.7 353.2l-3.1 3.1-27.2-27.2 3.2-3 27.1 27zM212.1 245.6l-3.1 3-28.2-28.1 3.1-3.2 28.2 28.3zM231 234c-1.1 0-2.2 1.1-4.3 2.1l-9.4-21.9 4.2-2L231 234zM283.2 361.5l-4.2 2.1-9.4-22c1 0 2-1 4.2-2l9.4 22zM199.6 263.3c-1 1-1 2.1-2.1 4.2l-22-9.4 2.1-4.2 22 9.4zM326 316.6l-2 4.2-22-9.4c1-1 1-2.1 2-4.2l22 9.4zM199.6 310.3l-22 9.4-2-4.1 21.9-9.4c1 2 1 3 2 4.1zM326 258l-22 9.5c0-1-1-2.1-2-4.2l22-9.4 2 4.2zM231 340.6l-9.5 22-4.2-2.1 9.4-22c2.1 1 3.2 1 4.2 2.1zM283.2 213.2l-8.4 21.9c-1-1-2-1-4.2-2l9.4-22 3.2 2z"/></g><path fill="#ffd15c" d="M411.7 0H89.9a21 21 0 0 0-21 20.9v54.3h364.7V21a22.6 22.6 0 0 0-22-20.9z"/><path fill="#40596b" d="M325 273.8l19.8 71 17.8-17.7 16.7 17.7 15.7-15.7-16.7-17.7 16.7-17.8z"/><ellipse cx="205.8" cy="37.6" fill="#f8b64c" rx="12.5" ry="12.5"/><ellipse cx="157.8" cy="37.6" fill="#ff7058" rx="12.5" ry="12.5"/><ellipse cx="109.7" cy="37.6" fill="#f8b64c" rx="12.5" ry="12.5"/><path fill="#e4eaef" d="M432.6 125.4v49.1a35.6 35.6 0 0 1-23 7.3c-22 0-39.7-17.8-39.7-39.7a39.7 39.7 0 1 1-79.4 0 39.7 39.7 0 1 1-79.4 0 39.7 39.7 0 1 1-79.4 0A39.7 39.7 0 0 1 69 174.5v-49.1h363.6z"/><path fill="#ff7058" d="M131.7 117H52.2L69 75.2h72.1z"/><path fill="#cdd6e0" d="M211.1 117h-79.4l9.4-41.8h73.1z"/><path fill="#ff7058" d="M290.5 117h-79.4l3.1-41.8h73.1z"/><path fill="#cdd6e0" d="M369.9 117h-79.4l-3.2-41.8h73.2z"/><path fill="#ff7058" d="M449.3 117h-79.4l-9.4-41.8h72.1z"/><g fill="#acb3ba"><path d="M131.7 134.8a39.7 39.7 0 1 0 79.4 0V117h-79.4v17.8zM290.5 117v17.8a39.7 39.7 0 1 0 79.4 0V117h-79.4z"/></g><g fill="#f1543f"><path d="M52.2 134.8a39.7 39.7 0 1 0 79.5 0V117H52.2v17.8zM211 134.8a39.7 39.7 0 1 0 79.5 0V117H211v17.8zM369.9 117v17.8a39.7 39.7 0 1 0 79.4 0V117H370z"/></g><ellipse cx="250.8" cy="287.3" fill="#ff7058" rx="61.6" ry="62.7"/><g fill="#fff"><path d="M240.3 306.2l-2-7.4h48v-36.5h-57.5l-3.1-13.6H209v6.3h12.5l14.6 57.4h52.3v-6.2h-48zm39.7-38.7v24h-42.8l-6.3-24H280z"/><ellipse cx="249.7" cy="323.9" rx="7.3" ry="7.3"/><ellipse cx="276.9" cy="323.9" rx="7.3" ry="7.3"/></g></svg>