<?xml version="1.0" standalone="no"?>
<!DOCTYPE svg PUBLIC "-//W3C//DTD SVG 20010904//EN"
 "http://www.w3.org/TR/2001/REC-SVG-20010904/DTD/svg10.dtd">
<svg version="1.0" xmlns="http://www.w3.org/2000/svg"
 width="530.000000pt" height="95.000000pt" viewBox="0 0 530.000000 95.000000"
 preserveAspectRatio="xMidYMid meet">
<metadata>
Created by potrace 1.15, written by Peter Selinger 2001-2017
</metadata>
<g transform="translate(0.000000,95.000000) scale(0.100000,-0.100000)"
fill="#000000" stroke="none">
<path d="M5115 934 c-11 -2 -46 -6 -77 -9 l-58 -6 0 -444 0 -443 80 -4 80 -3
0 458 c0 251 -1 456 -2 456 -2 -1 -12 -3 -23 -5z"/>
<path d="M4683 923 l-33 -4 0 -445 0 -444 80 0 80 0 0 450 0 450 -47 -2 c-27
0 -63 -3 -80 -5z"/>
<path d="M181 657 l-125 -112 52 -3 52 -3 0 -192 c0 -180 1 -196 22 -237 38
-74 101 -104 191 -90 49 7 120 48 136 77 8 16 4 18 -48 15 -46 -3 -61 0 -85
19 -53 41 -56 63 -56 364 0 151 -3 275 -7 275 -5 -1 -64 -51 -132 -113z"/>
<path d="M2738 758 c-11 -11 -119 -108 -222 -200 -19 -17 -18 -18 37 -18 l57
0 0 -205 c0 -146 4 -212 13 -228 37 -67 77 -89 161 -88 70 0 107 16 153 63
l32 33 -53 -3 c-35 -3 -64 2 -85 12 -58 31 -61 45 -61 361 0 169 -4 285 -9
285 -5 0 -16 -6 -23 -12z"/>
<path d="M755 615 c-5 -2 -31 -6 -57 -10 l-48 -6 0 -287 0 -287 80 3 80 4 0
294 0 294 -22 -1 c-13 0 -27 -2 -33 -4z"/>
<path d="M929 597 c-32 -21 -58 -62 -74 -115 l-7 -23 34 17 c22 13 54 18 101
18 l67 0 0 63 0 63 -44 0 c-28 0 -55 -8 -77 -23z"/>
<path d="M1304 599 c-70 -27 -125 -77 -158 -145 -25 -52 -29 -70 -28 -145 1
-134 50 -217 158 -269 90 -42 238 -25 310 37 24 21 68 83 59 83 -3 0 -19 -7
-36 -15 -18 -10 -57 -16 -99 -16 -94 0 -154 29 -195 96 -28 45 -30 55 -30 144
1 109 20 159 82 219 32 30 33 32 11 31 -13 0 -46 -9 -74 -20z"/>
<path d="M1475 600 c30 -33 28 -159 -3 -217 -24 -46 -78 -93 -108 -93 -16 0
-17 -2 -4 -10 46 -30 184 7 237 62 42 45 53 70 53 121 0 78 -62 139 -157 154
l-38 6 20 -23z"/>
<path d="M1995 606 c-120 -38 -187 -116 -214 -248 -24 -116 25 -257 108 -310
85 -54 214 -32 264 46 23 34 22 37 -9 26 -41 -16 -103 6 -145 50 -69 72 -75
210 -13 317 30 52 75 87 133 104 35 10 40 14 25 20 -29 12 -105 9 -149 -5z"/>
<path d="M2273 608 l-53 -10 0 -284 0 -284 75 0 74 0 3 295 3 295 -25 -1 c-14
-1 -49 -6 -77 -11z"/>
<path d="M4172 601 c-70 -24 -118 -65 -156 -131 -29 -52 -31 -61 -31 -160 1
-121 15 -161 84 -223 58 -53 103 -69 192 -69 108 0 191 40 232 111 l19 32 -39
-16 c-48 -20 -157 -21 -204 -1 -46 19 -102 84 -117 135 -31 103 2 239 75 309
41 38 27 41 -55 13z"/>
<path d="M4339 594 c29 -37 29 -148 1 -203 -23 -45 -86 -101 -115 -102 -20 0
-20 0 0 -9 49 -21 139 -5 207 38 94 59 111 181 34 248 -34 29 -93 54 -130 54
-16 0 -15 -3 3 -26z"/>
<path d="M3146 428 c41 -101 78 -192 83 -203 26 -59 50 -115 66 -157 10 -27
19 -48 21 -48 2 0 24 41 49 91 l46 90 -83 205 -82 204 -87 0 -86 0 73 -182z"/>
<path d="M3410 604 c0 -3 24 -65 54 -137 30 -73 82 -199 116 -282 34 -82 65
-153 69 -158 4 -4 27 34 50 84 l43 92 -57 146 c-32 80 -66 164 -75 186 -10 22
-20 48 -24 58 -4 14 -18 17 -91 17 -47 0 -85 -3 -85 -6z"/>
<path d="M3787 529 c12 -45 23 -95 24 -113 0 -26 8 -15 54 74 30 58 54 108 54
113 1 4 -34 7 -77 7 l-79 0 24 -81z"/>
</g>
</svg>
