<svg xmlns="http://www.w3.org/2000/svg" width="550.2" height="288.7" version="1"><defs><clipPath id="a"><path d="M73 820.4v-29.8h57v29.8"/></clipPath></defs><path fill="#231f20" fill-rule="evenodd" d="M178 73.4C191.5 32 223.7 0 277.4 0c50 0 86.6 32.4 100 74.3-14-39-53.4-67.2-100-67.2-46 0-85.3 27.7-99.4 66.3zM377 136.7a105 105 0 0 1-99.7 73.7c-51 0-85.4-31.8-99.2-72.8 14.3 38.2 53.4 65.6 99.3 65.6 46.2 0 85.5-27.8 99.6-66.5"/><g clip-path="url(#a)" transform="matrix(9.67137 0 0 -9.67137 -706.7 7934.6)"><path fill="#231f20" fill-rule="evenodd" d="M99.2 813.4c-.2.3-.2.8.1 1.3.2.4.7.5 1.1.3.5.4.6 0 1 .2.6.2.3-.7.9-.9.2.6-.5 1 0 1.3l.6.6c.2.4.3.7.5.7.3.2.2.5.2.5s.4-.1.7.1c-.2.1-.6.2-.5.5.1.2.9-.3 1 .1l-1 .7c-.3-.2-.4 0-.6 0-.4.4-.4.1-.7.3-.2-.4.1-.3.2-.4.3-.3-.3.2-.2-.5 0-.2-.3-.2-.5.2 0 .2-1 .1-1 .3 0 .3 1 1.1 2.6.9-2.2.9-5.3 0-5.3-.4-.3-.2-.2-.4-.3-.5-.3 0-.6-.8-.6-.8s.2-.1-.3-.7c-.4-.4-.6-1.1-.6-1.1s.3-.5.3-1.1l.1-.4c.1-.2.2-.9.3-.6.1.5-.3 1-.2 1.4 0 0 .2.2.2 0 0-.6.7-1.8.7-1.8s-.3-.2 0-.2h1.3zm4.7-7.1l.4-.4c.2-.6-.1-.1-.1-1 0-.7-.2-.5-.2-.5s0-1-.5-1.5c-.3-.2-.1-.5-.1-.5l-.2-.7c0-.2.2-.5.4-.4.2 0-.4.1.2.4.3 0 0 .3 0 .3s.5 0 .7.6c.4 0 .3.2 1.1.4.3 0 .3.1.3.3 0 .2.3 0 1.1.8.7.7.4.9.9 1.1.5.3.5 0 .7.2l.4.7.1.2h-5.2zm-2 7.6h.5c.2 0 .1-.3.4-.2l.6-.2c.4 0 0-.2 0-.2s-.3.1-.4 0l-.1.2-.6.3c-.2.2-.4 0-.3.1"/></g><path fill="#231f20" d="M97.8 83.6H81.5l2.4 3v21.1c0 4.8-3.2 6.8-8 6.8s-8-2-8-6.8V86.5l2.5-2.9H54l2.5 3V108c0 10.5 6 14.6 19.4 14.6 13.5 0 19.5-4 19.5-14.6V86.5l2.4-2.9M154.7 83.6h-13.8l2.4 3v19.2l-19.8-22.2h-12.4l2.5 3V119L111 122h13.8l-2.4-3V99.6l21 22.5h8.8V86.5l2.4-2.9M186.5 122l-2.4-3V86.6l2.4-2.9H170l2.5 3V119L170 122h16.5M241 83.6h-14l2.5 3-9.8 21-9.4-21 2.4-3h-16.3l18.1 38.4h8.1L241 83.6M287.3 122v-10.4l-3 2.4h-19.8v-7.4H277l2.8 2.4V96.6l-2.8 2.4h-12.6v-7.4h19.9l2.9 2.4V83.6h-36.6l2.4 3V119l-2.4 2.9h36.6"/><path fill="#231f20" fill-rule="evenodd" d="M329.6 96c0 2.8-2.7 5-6.4 5h-7.4v-9.4h8.8c2.5 0 5 1.3 5 4.5zm13.4 26l-10.5-15.1c5.1-2.1 8.8-6 8.8-11.6 0-6.4-4-11.7-15-11.7H302l2.4 3V119L302 122h16.2l-2.4-3v-10.8h4.9l7.4 10.9-2.4 2.9H343"/><path fill="#231f20" d="M392.3 110.8c0-6.1-5-9.5-12.2-11.8-4.6-1.4-11.2-2.5-11.2-5.5 0-1.5 1.8-2.6 5-2.6 4.1 0 11 1.8 16.4 4.3V82.4l-3.1 3c-3.3-1.4-9-2.8-12.9-2.8-13.2 0-17.4 5.8-17.4 11 0 7.1 4.7 10.2 12.3 12.8 5.5 1.9 10.7 2 10.7 5.2 0 2.7-3.2 3-4.8 3a36 36 0 0 1-18-5.6v14.2l3-3.3c3.1 1.1 10 3.1 15.5 3.1 11.5 0 16.7-5 16.7-12.2"/><path fill="#231f20" fill-rule="evenodd" d="M431.7 108.2h-12.9l6.4-13.7 6.5 13.7zm18.7 13.8l-19.1-38.4h-13.1l1.3 3-17.3 35.4h14.3l-2.4-3 1.9-4h18.5l1.9 4-2.4 3h16.4"/><path fill="#231f20" d="M496.5 122v-10.4l-3 2.4h-18.7V86.5l2.5-2.9H461l2.5 3V119L461 122h35.5M485.6 89c0-3 2.4-5.4 5.4-5.4 3 0 5.4 2.4 5.4 5.4 0 3-2.4 5.3-5.4 5.3-3 0-5.4-2.4-5.4-5.3zm.5 0c0 2.6 2.2 4.8 4.9 4.8s5-2.2 5-4.8c0-2.7-2.3-4.9-5-4.9s-5 2.2-5 4.9"/><path fill="#231f20" fill-rule="evenodd" d="M493 86.9c-.5-.5-1.1-.7-1.8-.7a2.7 2.7 0 0 0-2.8 2.8c0 1.5 1.1 2.8 2.7 2.8a3 3 0 0 0 2-.8v-.7c-.5.6-1.2 1-2 1-1.3 0-2.2-1.1-2.2-2.3 0-1.2 1-2.3 2.2-2.3.8 0 1.4.3 2 .9v-.7"/><path fill="#231f20" d="M27 264.5v14.2c0 7-4 9.7-12.7 9.7-8.8 0-12.7-2.7-12.7-9.7v-14.2L0 262.6h10.6l-1.5 2v14c0 3 2 4.4 5.2 4.4 3 0 5.1-1.3 5.1-4.5v-14l-1.5-1.9h10.6l-1.6 2M69.7 264.5V288H64l-13.7-14.8v13l1.6 1.8h-9l1.6-1.9v-21.5l-1.6-1.9h8l13 14.7v-12.8l-1.6-1.9h9l-1.6 2M87 288l1.6-2v-21.5l-1.6-1.9h10.7l-1.6 2V286l1.6 2H87M127.1 288h-5.3l-11.7-25.4h10.6l-1.6 2 6.1 13.8 6.4-13.9-1.6-1.9h9L127.1 288M151.2 288l1.5-2v-21.5l-1.5-1.9H175v6.9l-2-1.6h-12.9v4.9h8.2l1.9-1.6v8.2l-1.9-1.6h-8.2v4.8h13l1.9-1.5v6.8h-23.8M205 267.9h-5.7v6.2h4.8c2.4 0 4.2-1.5 4.2-3.3 0-2-1.6-2.9-3.3-2.9zm.7 20l1.6-1.9-4.8-7.1h-3.2v7.1l1.6 2h-10.6l1.6-2v-21.5l-1.6-1.9h15.8c7.2 0 9.8 3.5 9.8 7.7 0 3.7-2.4 6.3-5.8 7.6l7 10h-11.4M244 288.6c-3.6 0-8-1.3-10-2l-2 2.1v-9.3c4.2 2.7 9 3.7 11.7 3.7 1 0 3.1-.2 3.1-2 0-2.1-3.4-2.2-7-3.5-4.9-1.7-8-3.7-8-8.4 0-3.5 2.8-7.3 11.4-7.3 2.5 0 6.2 1 8.3 1.8l2-2v8.5c-3.5-1.6-8-2.8-10.7-2.8-2 0-3.2.7-3.2 1.7 0 2 4.3 2.7 7.3 3.7 4.7 1.5 7.9 3.7 7.9 7.7 0 4.8-3.3 8-10.8 8M282 269.8l-4.1 9h8.4l-4.2-9zm5.8 18.1l1.5-1.9-1.2-2.6h-12l-1.3 2.6 1.6 2h-9.3l11.3-23.5-1-1.9h8.6l12.4 25.3h-10.6M311.1 288l1.6-2v-21.5l-1.6-1.9h10.6l-1.6 2v18h12.2l1.9-1.5v6.8h-23M394.8 288l1.6-2V274l-6.7 14H386l-7.5-14.2V286l1.6 2h-8.8l1.6-2v-21.5l-1.6-1.9h9l8.1 15.5 7.5-15.5h9.1l-1.5 2V286l1.5 2h-10.3M446.5 264.5v14.2c0 7-4 9.7-12.7 9.7-8.8 0-12.7-2.7-12.7-9.7v-14.2l-1.6-1.9h10.7l-1.6 2v14c0 3 2.1 4.4 5.2 4.4s5.2-1.3 5.2-4.5v-14l-1.6-1.9h10.7l-1.6 2M474.3 288.6c-3.6 0-8-1.3-10-2l-2 2.1v-9.3c4.2 2.7 9 3.7 11.6 3.7 1.1 0 3.2-.2 3.2-2 0-2.1-3.4-2.2-7-3.5-5-1.7-8-3.7-8-8.4 0-3.5 2.8-7.3 11.4-7.3 2.5 0 6.2 1 8.3 1.8l2-2v8.5c-3.5-1.6-8-2.8-10.7-2.8-2 0-3.2.7-3.2 1.7 0 2 4.3 2.7 7.3 3.7 4.7 1.5 7.9 3.7 7.9 7.7 0 4.8-3.3 8-10.8 8M500.5 288l1.6-2v-21.5l-1.6-1.9h10.7l-1.6 2V286l1.6 2h-10.7M540.2 288.4c-7.7 0-14.6-3.8-14.6-13.2 0-7.4 5.3-13 15-13 2.8 0 6 .6 7.8 1.3l1.7-1.7v8.4a17 17 0 0 0-9.2-2.6c-5.3 0-7.4 3.6-7.4 7.6 0 4.6 3 7.7 7.7 7.7 4.6 0 7.4-1.8 9-2.7v5.9c-1.9 1-6.2 2.3-10 2.3"/></svg>