<svg xmlns="http://www.w3.org/2000/svg" width="680.3" height="431.4" version="1"><path d="M0 431.4h680.3V0H0v431.4z" class="ps01"/><path fill="#fff" d="M244.6 155.6a562 562 0 0 0 191 0l.7 2.5a454.1 454.1 0 0 1-191.7 0v-2.5" class="ps02"/><path fill="#fff" d="M476.4 170.5a647.3 647.3 0 0 1-272 0l.7-2.5a741.6 741.6 0 0 0 270.7 0l.6 2.5M397.3 146.1a299.2 299.2 0 0 1-114.4 0l.6-2.5a449.5 449.5 0 0 0 113.8 0v2.5M314.9 83.6c0-14.4 9.3-23.3 20.3-23.3s20.3 8.8 20.3 20.7h-1.1c0-9.7-7.6-17-16.9-17-9.3 0-16.8 7.2-16.8 19.7v48.8h-5.8v-49" class="ps02"/><path fill="#fff" d="M314.9 67.7c4-6.7 11.6-11.1 20.3-11.1 13.4 0 24.4 9.6 24.4 27v48.9h5.8V83.2c0-19.3-12.8-30.5-27.3-30.5a27.9 27.9 0 0 0-24.4 14.5l1.2.5" class="ps02"/><path fill="#fff" fill-rule="evenodd" d="M341.6 345l9.9-13v13h-10zm-1.8 2.7h11.7v7.7h4.6v-7.7h4V345h-4v-17h-2.9l-13.4 17.8v2M385.7 339.7c-2.3-1.4-7-2.5-7-5.9 0-3 2.4-4.4 5.9-4.4 2.9 0 4.6 1.5 4.6 4.5 0 2.7-1.1 4.4-3.5 5.8zm-4.6 2.3c3.5 1.6 8.7 2.7 8.7 7 0 3.3-3 5.6-6.4 5.6-3.5 0-5.8-2.3-5.8-5.5 0-3.1 1.2-5.2 3.5-7zm5.8-2c2.3-1.1 5.8-2.9 5.8-6 0-3.8-4.6-5.7-8.7-5.7-4 0-9.3 2.2-9.3 6.7 0 3.5 2.3 5.1 5.8 6.6-3.5 1.7-6.4 3.5-6.4 7.3 0 4.7 4.7 6.8 8.7 6.8 5.8 0 11-2.5 11-7.7 0-4.3-3.4-6.3-7-8" class="ps03"/><path fill="#fff" d="M296.8 355.4v-.8c-2.3 0-2.9-.3-2.9-2v-24.3h-1.1c-1.2 1-3.5 3.3-8.2 4.1v.9c3 .2 4.1.2 4.1.8.6.5.6 1.2.6 2.5v16c0 1.7-1.2 2-3.5 2v.8h11M328.2 328.7H319l-3.5-.1c-1.1 0-1.1-.1-1.1-1.1H313l-2.3 7.5h.6l.6-1.1c.5-.9 1.1-1.5 1.7-1.5h11.6l-8.7 17.3-2.3 5.6c0 .8 1.1.8 1.7.8 1.8 0 2.3-.6 3-1.9l9.2-24.5v-1M45.9 303h259v-2.6H46v2.5zM333.4 303h307.4v-2.6H333.4v2.5z" class="ps02"/><path fill="#fff" fill-rule="evenodd" d="M302.7 266.4c0-11.6-8.2-19.3-19.8-19.3-12.2 0-20.3 8-20.3 19.3 0 11.2 8.1 19.3 20.3 19.3 11 0 19.8-8.2 19.8-19.3zm-8.2 0c0 9.5-4 17.3-11.6 17.3-8.1 0-11.6-7.7-11.6-17.3 0-9.5 4-17.3 11.6-17.3 8.1 0 11.6 7.7 11.6 17.3M458.3 255.7h4.1c10.5 0 19.8.9 19.8 13.4 0 8.8-5.3 13.6-15.7 13.6-4.7 0-8.2-.7-8.2-5.2v-21.8zm0-27.5h3.5c14 0 16.9 5.6 16.9 12.3 0 9.4-7 12.8-15.7 12.8h-4.7v-25zm-16.2 56.6c7.5 0 14.5.3 22 .3a46 46 0 0 0 19.2-3.2c6.4-3.4 8.7-8 8.7-13.2 0-8.4-6.4-14.5-15-15.5 6.9-2 11-6.5 11-13.5 0-4.5-3-9.2-7.6-11.2-5.2-2.6-11-2.7-17.4-2.7l-21 .2v1.8c4.1.6 7-.3 7 4v47.5c0 3.5-3.4 3.5-7 3.7v1.8M543.2 266.4c0-11.6-8.2-19.3-20.4-19.3-11.6 0-20.3 8-20.3 19.3 0 11.2 8.7 19.3 20.3 19.3 11 0 20.4-8.2 20.4-19.3zm-8.8 0c0 9.5-4 17.3-11.6 17.3-7.5 0-11.6-7.7-11.6-17.3 0-9.5 4-17.3 11.6-17.3 8.2 0 11.6 7.7 11.6 17.3" class="ps03"/><path fill="#fff" d="M39.5 227.8c2.3 0 4.6.6 6.4 2.2 1.2 1.6 2.9 4.7 4.6 9.5L69.7 286h3l18-47.2c2.2-5.6 4.6-11 11-11V226H81.9v1.8c1.8 0 4.7-.2 6.4 2.6.6 1.6.6 4.8-1.7 10.9l-11.7 32.2h-.5l-14.6-37c0-.5-1.1-3.6-1.1-5.3.6-2.6 4-3.4 7-3.4V226H39.4v1.8M143 225.2c-4.2 1.2-9.4 3-14 4v1c2.3 0 3.4.6 4 1.3 1.8 1.2 1.8 3.2 1.8 5.3v41.7c0 4.4-1.2 4.4-5.8 4.7v1.6H148v-1.6c-4-.3-5.2-.3-5.2-4.7v-53.3M169.6 225.2c-4 1.2-9.3 3-13.3 4v1c1.7 0 2.9.6 4 1.3 1.2 1.2 1.2 3.2 1.2 5.3v41.7c0 4.4-1.2 4.4-5.2 4.7v1.6h18.6v-1.6c-4.1-.3-5.3-.3-5.3-4.7v-53.3M247.5 284.8v-1.6c-4.7-.3-5.8-.3-5.8-4.7V262c0-7 3.4-10.7 5.8-10.7 2.9 0 3.5 3.4 6.4 3.4 2.3 0 4-1.5 4-3.9 0-2.7-2.9-4.3-5.8-4.3-5.8 0-9.3 5-11 7.6v-7.3c-3.5 1.4-8.2 3.2-12.2 4.3v.9c3.5 1.4 4.6 1.6 4.6 5v21.5c0 4.4-1.7 4.4-5.2 4.7v1.6h19.2M587.3 274.5c-2.3 4.3-6.4 8-12.2 8-9.9 0-12.8-8.8-12.8-16.6 0-6.8 2.4-16.8 11-16.8 3.6 0 7 2.4 7 6 0 2.1 1.8 4.2 3.5 4.2 2.3 0 4-1.5 4-3.5-.5-5.5-7.5-8.7-14.4-8.7-12.2 0-19.8 8.4-19.8 19.7 0 10.3 7.6 19 18.6 19 7.6 0 13.4-4.2 16.3-10.8l-1.2-.5M614 284.8v-1.6c-4-.3-5.2-.3-5.2-4.7v-22.6c2.3-2.4 4-5.4 9.9-5.4 5.2 0 7.5 4.3 7.5 10v18c0 4.4-1.1 4.4-4.6 4.7v1.6h18.6v-1.6c-4.1-.3-5.3-.3-5.3-4.7v-17.1c0-12.2-8.7-14.3-13.3-14.3-5.8 0-9.3 2.6-12.8 6v-27.9c-4 1.5-9.3 2.9-13.4 4.4v.7c2.4.5 4.7 1.2 4.7 3.9v44.3c0 4.4-1.2 4.4-5.2 4.7v1.6H614M120.2 284.8v-1.6c-4-.3-5.2-.3-5.2-4.7v-31.9c-4 1.5-9.3 3-13.3 4.5v.9c1.1.2 1.7.3 2.9.8 1.7 1 1.7 3.5 1.7 5.2v20.5c0 4.4-1.2 4.4-5.2 4.7v1.6h19.1M105.7 235.5c0-2.6 1.8-4.8 4.7-4.8a5 5 0 0 1 4.6 4.8 5 5 0 0 1-4.6 4.9c-3 0-4.7-2.2-4.7-4.9M194 259h17.5c0-6.5-4.1-9.9-8.2-9.9-4 0-8.1 3.8-9.3 9.8zm-.6 2.5c-.5 1.4-.5 2.8-.5 4.4 0 9 3.4 16.6 13.3 16.6 4 0 9.3-3 12.2-8l1.2.5c-1.8 4.7-7 10.7-15.7 10.7-11.6 0-19.7-7.4-19.7-19 0-10.9 7.5-19.6 19.1-19.6 8.7 0 15.7 4.8 16.3 14.4h-26.2M325.3 292.6l3-6.9-14.6-31.7c-1.2-2.3-2.3-4.4-5.8-4.4V248h19.7v1.6c-2.3 0-4 0-4.6 1.7 0 .7-.6 1.8.6 3.3l9.3 21.5 8.1-19.5c.6-1.8 1.2-4.1.6-5.4-1.2-1.7-3.5-1.6-5.2-1.6V248h15v1.6c-4 0-5.8 2.5-7 5.2l-16.8 39.4c-1.7 4-4 9-9.3 9-1.7 0-3.4-1.7-3.4-3.5 0-2 1.1-3.4 3.4-3.5l3 .5c2.3.2 3.4-2.3 4-4M391 253.5c4-3.4 5.2-6.1 5.2-9.1.6-4.7-1.8-6.3-4.7-6.3-2.9 0-4.6 3-4.6 4.8 0 2.7 1.2 4.4 2.3 7.5.6.8 1.2 1.9 1.8 3.1zm7.5 24.2c-4-5.1-8.7-12.3-12.2-17.6a18 18 0 0 0-5.2 11.8c0 6 4 9.8 8.7 9.8a13 13 0 0 0 8.7-4zm7-4.9c-.6.5-.6 1-1.2 1.4.6.6 1.2 1 1.2 1.5 2.9 3.1 5.8 5.3 10.4 5.3 2.4 0 4.1-.8 6.4-3.3l.6.9c-1.7 3.2-5.8 7.1-10.4 7.1-4.7 0-8.2-2-11.7-5.3l-.5-.7a18 18 0 0 1-12.8 6c-10.5 0-14-7-14-12.4 0-7.2 6.4-11.8 11.6-15.4l-2.3-4.1a18 18 0 0 1-2.3-7.6c0-5.8 4-10 11-10 6.4 0 10.5 3.5 10 8.6-.7 4.4-5.3 7.8-9.4 10.8 3 5 7 11.9 11 16.7 0-.4 0-.7.6-1 1.2-2.8 3.5-7 3.5-11 0-2.7-1.7-3.4-4-3.4v-1.4h14.5v1.4c-5.2 0-7 4.1-8.7 8-.6 2.3-3 6-3.5 8" class="ps02"/></svg>