<svg xmlns="http://www.w3.org/2000/svg" width="1133.9" height="476.9" version="1"><path d="M885.8 122.6h-19.3a173.8 173.8 0 0 0-286.7 8.4 173.9 173.9 0 0 0-286.7-8.3h-19.2a189.6 189.6 0 0 1 305.9-18.4 189.5 189.5 0 0 1 306 18.3M886.2 353.7a189.6 189.6 0 0 1-306.4 19 189.6 189.6 0 0 1-306.3-19h19.1a173.9 173.9 0 0 0 287.2-7.8 173.9 173.9 0 0 0 287.2 7.8h19.2"/><path fill-rule="evenodd" d="M211.2 242.8c0-29.4 18.8-53.2 42.5-53.2 23.8 0 42.5 23.8 42.5 53.2 0 29.4-18.7 53.2-42.5 53.2-23.7 0-42.5-23.8-42.5-53.2zm-32.7 0a75.7 75.7 0 0 1 75.2-76.2 75.7 75.7 0 0 1 75.3 76.2 75.7 75.7 0 0 1-75.3 76.2 75.7 75.7 0 0 1-75.2-76.2"/><path d="M969.5 315h31V171.2h-31V315zM106.5 276.6L70.8 171.2H35.4L89.2 315h30.4l52.9-143.8h-29.1l-36.7 105.7-.2-.3M694.6 171.2V315h104.3v-23.3h-73.4v-39.3H788v-23.3h-62.5v-34.6h70.2v-23.3H694.6M578 222.8l23.2 92.2h30.7l40.3-143.8h-27.7l-26 99.7-22.5-99.7h-29.1l-24.6 100.2-22.9-100.2H485L524.8 315h30.5l22.7-92.2M397.8 245.6l39 69.4h38.9l-37-54.8c9.6-3.6 30.8-17.1 30.8-41.6 0-30.7-23.8-47.4-48.9-47.4h-66.5V315h31V193.2h26.3c14 0 26.4 9 26.4 26.2s-15 26.5-31.7 26.5c-3.2 0-6 .1-8.3-.3M870.6 245.6l39.1 69.4h38.8l-37-54.8c9.7-3.6 30.9-17.1 30.9-41.6 0-30.7-23.8-47.4-49-47.4H827V315h31V193.2h26.3c14 0 26.5 9 26.5 26.2s-15 26.5-31.8 26.5c-3.2 0-5.9.1-8.3-.3M1004.5 236.9l52.7 78h41.2l-60-79.7 53.3-64h-37.1l-50.1 65.7"/></svg>