<svg xmlns="http://www.w3.org/2000/svg" viewBox="0 0 512 512"><circle cx="256" cy="267" r="245" fill="#a53535"/><path fill="#d9eafc" d="M62 416.5a244.6 244.6 0 0 0 324 58.2V134.3H62v282.2z"/><path fill="#c3ddf4" d="M81.8 134.3H61.9v282.2c6.2 8 12.8 15.5 19.9 22.7V134.3z"/><path fill="#02af8e" d="M61.9 35.9h324v99.4h-324z"/><path fill="#0f9390" d="M61.9 35.9h19.8v99.4H61.9z"/><path fill="#1a2b63" d="M376.4 0h-305A9.6 9.6 0 0 0 62 9.6v27.3h324V9.6c0-5.3-4.3-9.6-9.5-9.6z"/><path fill="#52bbef" d="M348 295.8c0 2-1.6 3.6-3.6 3.6H201.5c-2 0-3.6-1.6-3.6-3.6v-95.7c0-2 1.6-3.6 3.6-3.6h143c1.9 0 3.5 1.6 3.5 3.6v95.7z"/><path fill="#1e99d6" d="M217.8 295.8v-95.7c0-2 1.6-3.6 3.5-3.6h-19.8c-2 0-3.6 1.6-3.6 3.6v95.7c0 2 1.6 3.6 3.6 3.6h19.8c-2 0-3.5-1.6-3.5-3.6z"/><path fill="#02af8e" d="M313.7 252.5a3 3 0 0 0-4.6 0l-18.6 22a3 3 0 0 1-4.6 0l-35-41.6a3 3 0 0 0-4.6 0l-48.4 57.3v5.6c0 2 1.6 3.6 3.6 3.6h143c1.9 0 3.5-1.6 3.5-3.6v-2.7l-34.3-40.6z"/><circle cx="326.3" cy="216.6" r="10.7" fill="#ffd00d"/><g fill="#1e99d6"><path d="M343 329.5H205.8a7.5 7.5 0 0 1 0-15H343a7.5 7.5 0 1 1 0 15zM343 355.1H205.8a7.5 7.5 0 0 1 0-15H343a7.5 7.5 0 1 1 0 15zM343 380.7H205.8a7.5 7.5 0 0 1 0-15H343a7.5 7.5 0 1 1 0 15zM343 406.4H205.8a7.5 7.5 0 0 1 0-15H343a7.5 7.5 0 1 1 0 15zM274.7 432h-68.9a7.5 7.5 0 0 1 0-15h68.9a7.5 7.5 0 0 1 0 15zM274.7 184h-68.9a7.5 7.5 0 0 1 0-15h68.9a7.5 7.5 0 0 1 0 15z"/></g><g fill="#eef6ff"><path d="M97.7 379.9a5 5 0 0 1 5-5h66.5a5 5 0 0 1 5 5v46.8a5 5 0 0 1-5 5h-66.5a5 5 0 0 1-5-5v-46.8zM97.7 311.8a5 5 0 0 1 5-5h66.5a5 5 0 0 1 5 5v46.8a5 5 0 0 1-5 5h-66.5a5 5 0 0 1-5-5v-46.8z"/></g><g fill="#ffdd8d"><path d="M97.7 243.8a5 5 0 0 1 5-5h66.5a5 5 0 0 1 5 5v46.8a5 5 0 0 1-5 5h-66.5a5 5 0 0 1-5-5v-46.8zM97.7 175.7a5 5 0 0 1 5-5h66.5a5 5 0 0 1 5 5v46.9a5 5 0 0 1-5 5h-66.5a5 5 0 0 1-5-5v-46.9z"/></g><g fill="#c3ddf4"><path d="M117.6 426.7v-46.8a5 5 0 0 1 5-5h-19.9a5 5 0 0 0-5 5v46.8a5 5 0 0 0 5 5h19.9a5 5 0 0 1-5-5zM117.6 358.6v-46.8a5 5 0 0 1 5-5h-19.9a5 5 0 0 0-5 5v46.8a5 5 0 0 0 5 5h19.9a5 5 0 0 1-5-5z"/></g><g fill="#ff9f60"><path d="M117.6 290.6v-46.8a5 5 0 0 1 5-5h-19.9a5 5 0 0 0-5 5v46.8a5 5 0 0 0 5 5h19.9a5 5 0 0 1-5-5zM117.6 222.6v-46.9a5 5 0 0 1 5-5h-19.9a5 5 0 0 0-5 5v46.9a5 5 0 0 0 5 5h19.9a5 5 0 0 1-5-5z"/></g><g fill="#fff"><path d="M309 105.6H138.9a7.5 7.5 0 0 1 0-15h170a7.5 7.5 0 0 1 0 15zM266.2 77.3h-84.5a7.5 7.5 0 0 1 0-15h84.5a7.5 7.5 0 0 1 0 15z"/></g><path fill="#fe3745" d="M84.9 26.2c-2 0-4-.9-5.5-2.3a7.8 7.8 0 0 1 0-11 7.8 7.8 0 0 1 11 0 7.8 7.8 0 0 1 0 11 7.8 7.8 0 0 1-5.5 2.3z"/><path fill="#ffd00d" d="M110.2 26.2a7.8 7.8 0 0 1-7.7-7.8 7.8 7.8 0 0 1 7.7-7.7 7.8 7.8 0 0 1 7.8 7.7 7.8 7.8 0 0 1-7.8 7.8z"/><path fill="#37c47a" d="M135.6 26.2a7.8 7.8 0 0 1-7.7-7.8 7.8 7.8 0 0 1 7.7-7.7 7.8 7.8 0 0 1 5.5 13.2 7.8 7.8 0 0 1-5.5 2.3z"/><path fill="#f87eab" d="M404.2 382.6c0 11.3 9.3 20.6 20.7 20.6h2c11.4 0 20.7-9.3 20.7-20.6v-13.4h-43.4v13.4z"/><path fill="#ffe2b8" d="M445.3 50.9l-17.1-35.3c-1.3-2.6-3.3-2.6-4.5 0l-17.2 35.3c-1.2 2.6-2.3 7-2.3 9.8v9.7h43.4v-9.7c0-2.8-1-7.2-2.3-9.8z"/><path fill="#ffaf10" d="M404.3 69.4h43.3v300.8h-43.3z"/><path fill="#ff9518" d="M404.3 69.4h19.8v300.8h-19.8z"/><path fill="#293d7c" d="M423.7 15.6L414 35.3h23.7l-9.6-19.7c-1.3-2.6-3.3-2.6-4.5 0z"/></svg>