<svg xmlns="http://www.w3.org/2000/svg" viewBox="0 0 512 512"><path fill="#f4d853" d="M367.6 506.9l10.8-84h82.4a43.1 43.1 0 0 0 43.1-43V212.6s-23.5 5-43 10.7c-19 5.7-35.3 17.7-35.3 37.6v102.5h-74.3c-11.9 0-21.5 9.7-21.5 21.6V508"/><path d="M337.9 508h-16.2V385a29.7 29.7 0 0 1 29.6-29.6h66.2V261c0-21 15-37.5 41.1-45.3a602.2 602.2 0 0 1 43.7-10.9l9.7-2v177c0 28.3-23 51.2-51.2 51.2h-75.3l-9.9 77-16-2.1 11.7-91h89.5a35 35 0 0 0 35-35V222.7c-8.5 2-21.3 5-32.5 8.4-11 3.3-29.6 11.6-29.6 29.8v110.6h-82.4c-7.4 0-13.4 6-13.4 13.5V508z"/><path fill="#f4d8aa" d="M465.1 86.6a38.8 38.8 0 0 0-38.8 38.8l-18.3 42h18.3v27H463a41 41 0 0 0 41-41v-28A38.8 38.8 0 0 0 465 86.6z"/><path d="M463 202.5h-44.8v-27h-22.6l22.7-51.8a47 47 0 0 1 93.7 1.8v28c0 27-22 49-49 49zm-28.6-16.2H463a33 33 0 0 0 32.8-32.8v-28a30.8 30.8 0 0 0-61.4 0v1.6l-14 32.3h14v27z"/><path fill="#fff" d="M473.8 125l-11.5-11.5 11.5-11.4 11.4 11.4z"/><path fill="#3d6deb" d="M144.4 506.9l-10.8-84H51.2a43.1 43.1 0 0 1-43.1-43V212.6s23.5 5 43 10.7c19 5.7 35.3 17.7 35.3 37.6v102.5h74.3c11.9 0 21.5 9.7 21.5 21.6V508"/><path d="M190.3 508h-16.2V385c0-7.4-6-13.4-13.4-13.4H78.3V260.9c0-18.1-18.5-26.4-29.6-29.7a530 530 0 0 0-32.5-8.4v157a35 35 0 0 0 35 35h89.5l11.7 91-16 2.1-10-76.9H51.3C23 431 0 408 0 379.8v-177l9.7 2c1 .2 24.1 5 43.7 10.9 26.1 7.8 41.1 24.3 41.1 45.3v94.4h66.2a29.7 29.7 0 0 1 29.6 29.7V508z"/><path fill="#f4d8aa" d="M46.9 86.6a38.8 38.8 0 0 1 38.8 38.8l18.3 42H85.7v27H49a41 41 0 0 1-41-41v-28A38.8 38.8 0 0 1 47 86.6z"/><path d="M93.8 202.5H49c-27 0-49-22-49-49v-28a47 47 0 0 1 93.7-1.8l22.7 51.9H93.8v27zm-47-107.8c-16.9 0-30.6 13.8-30.6 30.7v28a33 33 0 0 0 32.8 33h28.6v-27h14l-14-32.3v-1.7c0-16.9-13.8-30.7-30.7-30.7z"/><path fill="#fff" d="M42 125l-11.4-11.5 11.5-11.4 11.4 11.4z"/><g fill="#a9a8ae"><path d="M240 508V313.9h32.4V508"/><path d="M121.2 281.6h264.1v32.3H121.2z"/></g><path d="M393.4 273.5H113V322H232v186H248V322h16.2v186h16.2V322h112.9v-48.5zM377.2 306h-248v-16.2h248v16.2z"/><path fill="#3d6deb" d="M312.1 119.9V12.1H139.6V48l-30.2 36.9h30.2v35z"/><path fill="#f4d853" d="M357.3 55.2v35.9l30.2 36.9h-30.2v35H184.9V55.2z"/><path fill="#a9a8ae" d="M184.8 55.2H312v64.7H184.8z"/><path d="M365.4 88.2v-41h-45.3V4H131.5v41L92.3 93h39.2v35h33.8v-16.2h-17.6v-35h-21.3l21.3-26V20.3H304v27H176.8v124h188.6V136h39.2l-39.2-47.9zm-16.2 31.7v35H193V128h127.2V73.7H304v38.1H193V63.3h156.2V94l21.3 26h-21.3zM309.3 230.7h-16.2v-16.1h16.2v16.1zm-45.3 0H248v-16.1H264v16.1zm-45.2 0h-16.2v-16.1h16.2v16.1z"/></svg>