<svg xmlns="http://www.w3.org/2000/svg" viewBox="0 0 90 90"><g data-name="16-Development"><g data-name="&lt;Group&gt;"><path fill="#f1f2f2" d="M9 56a6 6 0 0 1 0 12z"/><path fill="#8d92b3" d="M28 60v4l-5.5 1.3a11.6 11.6 0 0 1-1 2.5l3 4.8-2.9 2.8-4.8-3a11.6 11.6 0 0 1-2.5 1.1l-.6 2.4A43.9 43.9 0 0 1 9 70.1L9 70v-2a6 6 0 0 0 0-12V45h4l1.3 5.5a11.6 11.6 0 0 1 2.5 1l4.8-3 2.8 2.9-3 4.8a11.6 11.6 0 0 1 1.1 2.5z"/><path fill="#a4b0c0" d="M40 33a10.6 10.6 0 0 1 7 10 10 10 0 0 1-7 9.5V89h-6V52.5a10 10 0 0 1-7-9.5 10.6 10.6 0 0 1 7-10v11l2 2h2l2-2z"/><path fill="#ffde17" d="M60 69l-1 17.7V88a1 1 0 0 1-1 1h-8a1 1 0 0 1-1-1l-1-19z"/><path fill="#fbb040" d="M61 64l2 5H45l2-5h14z"/><path fill="#a4b0c0" d="M58 32v6h-2v26h-4V38h-2v-6l2-3h4l2 3z"/><path fill="#f1f2f2" d="M81.1 70.1a44.1 44.1 0 0 1-22 16.6L60 69h3l-2-5h-5V38h2v-6l-2-3h-4l-2 3v6h2v26h-5l-2 5h3l1 19h-9V52.5a10 10 0 0 0 7-9.5 10.6 10.6 0 0 0-7-10v11l-2 2h-2l-2-2V33a10.6 10.6 0 0 0-7 10 10 10 0 0 0 7 9.5v35.1A44 44 0 0 1 13.7 76l.6-2.4a11.6 11.6 0 0 0 2.5-1l4.8 3 2.8-2.9-3-4.8a11.6 11.6 0 0 0 1.1-2.5L28 64v-4l-5.5-1.3a11.6 11.6 0 0 0-1-2.5l3-4.8-2.9-2.8-4.8 3a11.6 11.6 0 0 0-2.5-1.1L13 45H9V24h72v7h-4l-1.3 5.5a11.6 11.6 0 0 0-2.5 1l-4.8-3-2.8 2.9 3 4.8a11.6 11.6 0 0 0-1.1 2.5L62 46v4l5.5 1.3a11.6 11.6 0 0 0 1 2.5l-3 4.8 2.9 2.8 4.8-3a11.6 11.6 0 0 0 2.5 1.1L77 65h4v5z"/><path fill="#f1f2f2" d="M81 42v12a6 6 0 0 1 0-12z"/><path fill="#8d92b3" d="M81 54v11h-4l-1.3-5.5a11.6 11.6 0 0 1-2.5-1l-4.8 3-2.8-2.9 3-4.8a11.6 11.6 0 0 1-1.1-2.5L62 50v-4l5.5-1.3a11.6 11.6 0 0 1 1-2.5l-3-4.8 2.9-2.8 4.8 3a11.6 11.6 0 0 1 2.5-1.1L77 31h4v11a6 6 0 0 0 0 12zM81 20v4H68V12h11a2 2 0 0 1 2 2z"/><circle cx="23" cy="18" r="2" fill="#fbb040"/><circle cx="15" cy="18" r="2" fill="#fbb040"/><path fill="#ffde17" d="M68 12v12H9V14a2 2 0 0 1 2-2h57zm-43 6a2 2 0 1 0-2 2 2 2 0 0 0 2-2zm-8 0a2 2 0 1 0-2 2 2 2 0 0 0 2-2z"/><path fill="#5a87f6" d="M81.2 20a44 44 0 0 1 0 50.1L81 70V20zM74 12H16a44 44 0 0 1 58 0zM9 68v2l-.1.1A44 44 0 0 1 9 19.7V68z"/><path fill="#5a5f7b" d="M72 15h5v2h-5zM72 19h5v2h-5z"/><path fill="#fbb040" d="M51 72h6v2h-6zM51 76h6v2h-6zM51 80h6v2h-6z"/></g></g></svg>