<svg xmlns="http://www.w3.org/2000/svg" viewBox="0 0 32 32"><g data-name="14 Mobile Development"><path fill="#837aff" d="M29.6 18.5a6.6 6.6 0 0 0-.8-1.9l.8-1-1.9-2-1 .8a6.7 6.7 0 0 0-2-.8l-.2-1.2H22l-.2 1.2a6.8 6.8 0 0 0-2 .8l-1-.7-1.8 1.8.7 1.1a6.6 6.6 0 0 0-.8 1.9l-1.3.2v2.7l1.3.2a6.6 6.6 0 0 0 .8 1.9l-.7 1 1.8 1.9 1-.7a6.5 6.5 0 0 0 2 .7l.2 1.3h2.6l.3-1.3a6.5 6.5 0 0 0 1.8-.7l1.1.7 1.9-1.9-.8-1a6.6 6.6 0 0 0 .8-1.9l1.3-.3v-2.6zm-6.4 4.8a3.3 3.3 0 1 1 3.3-3.3 3.3 3.3 0 0 1-3.3 3.3z"/><path fill="#5eb8e1" d="M8.2 1.9h13a2 2 0 0 1 2 2V28a2 2 0 0 1-2 2.1h-13a2 2 0 0 1-2-2V4a2 2 0 0 1 2-2.1z"/><path fill="#e6e6e6" d="M18.2 4.4h-3.5a.5.5 0 0 1 0-1h3.5a.5.5 0 0 1 0 1zM11.9 4.4h-.7a.5.5 0 0 1 0-1h.7a.5.5 0 0 1 0 1zM15.7 28.5h-2a.5.5 0 0 1 0-1h2a.5.5 0 0 1 0 1zM10.9 28.5H10a.5.5 0 0 1 0-1h.8a.5.5 0 1 1 0 1zM19.3 28.5h-.8a.5.5 0 0 1 0-1h.8a.5.5 0 0 1 0 1z"/><path fill="#5555a5" d="M19 6a1.2 1.2 0 0 1-1 .6h-6.6a1.2 1.2 0 0 1-1-.6H8.2v20h13V6z"/><path fill="#837aff" d="M12.3 12a5.2 5.2 0 0 0-.6-1.4l.6-.9-1.5-1.5-.9.6a5.1 5.1 0 0 0-1.4-.6l-.2-1H6.2l-.2 1a5.2 5.2 0 0 0-1.5.6l-.9-.6-1.4 1.5.5.9a5.2 5.2 0 0 0-.6 1.4l-1 .2v2.1l1 .2a5.2 5.2 0 0 0 .6 1.5l-.5.9 1.4 1.5.9-.6a5.2 5.2 0 0 0 1.5.6l.2 1h2l.3-1a5.1 5.1 0 0 0 1.5-.6l.8.6 1.5-1.5-.6-.9a5.2 5.2 0 0 0 .6-1.5l1-.2v-2zm-5 4a2.7 2.7 0 1 1 2.6-2.7A2.7 2.7 0 0 1 7.2 16z"/></g></svg>