<svg xmlns="http://www.w3.org/2000/svg" viewBox="0 0 512 512"><path fill="#3e5959" d="M512 61v300l-30 30H30L0 361V61zm0 0"/><path fill="#293939" d="M512 61v300l-30 30H256V61zm0 0"/><path fill="#deecf1" d="M482 91v240h-91l-30-30h-60l-30 30h-30l-30-30h-60l-30 30H30V91zm0 0"/><path fill="#c5d3dd" d="M482 91v240h-91l-30-30h-60l-30 30h-15V91zm0 0M330.1 492.2H181.9l30-91h88.2zm0 0"/><path fill="#9facba" d="M300.1 401.2l30 91H256v-91zm0 0"/><path fill="#deecf1" d="M121 482h270v30H121zm0 0M0 361h512v60H0zm0 0"/><path fill="#c5d3dd" d="M256 482h135v30H256zm0 0M256 361h256v60H256zm0 0"/><path fill="#ffcebf" d="M391 151l-60 30-60-30L331 0zm0 0"/><path fill="#ff9468" d="M391 151l-60 30V0zm0 0"/><path fill="#ff9100" d="M271 151h120v180H271zm0 0"/><path fill="#f03800" d="M331 151h60v180h-60zm0 0"/><path fill="#25d9f8" d="M241 271v60H121v-60l60-29.7.9-.3zm0 0"/><path fill="#009ae4" d="M181.9 241l59.1 30v60h-60v-89.7zm0 0"/><path fill="#537983" d="M241 271H121c0-33 27-60 60-60s60 27 60 60zm0 0"/><path fill="#3e5959" d="M241 271h-60v-60c33 0 60 27 60 60zm0 0"/><path fill="#537983" d="M237.1 130L181 0l-56.1 130-.6.9A60.2 60.2 0 0 0 181 211a60.2 60.2 0 0 0 56.1-81zm0 0"/><path fill="#3e5959" d="M181 211V0l56.1 130a60.2 60.2 0 0 1-56.1 81zm0 0"/></svg>