<svg xmlns="http://www.w3.org/2000/svg" viewBox="0 0 512 512"><path fill="#dbd9dc" d="M322 397.4h-41.2l-4.3 17a21.2 21.2 0 0 1-41 0l-4.3-17H190l-8.2 66h148.6l-8.2-66z"/><path fill="#edebed" d="M363.4 474.8H148.6a8.3 8.3 0 1 1 0-16.5h214.8a8.3 8.3 0 1 1 0 16.5z"/><g fill="#c9c6ca"><path d="M190 397.4l-2.5 19.6h48.9a21 21 0 0 1-1-2.6l-4.2-17H190zM275.6 417h49l-2.5-19.6h-41.3l-4.3 17c-.2 1-.5 1.8-.9 2.6z"/></g><path fill="#edebed" d="M487.2 400.5H24.8C11 400.5 0 389.5 0 375.7V62c0-13.6 11-24.7 24.8-24.7h462.4c13.7 0 24.8 11 24.8 24.7v313.8c0 13.7-11 24.8-24.8 24.8z"/><path fill="#e6646e" d="M470.7 367.5H41.3a8.3 8.3 0 0 1-8.3-8.3V78.5c0-4.6 3.7-8.3 8.3-8.3h429.4c4.6 0 8.3 3.7 8.3 8.3v280.7c0 4.6-3.7 8.3-8.3 8.3z"/><g fill="#5d5360"><circle cx="206.4" cy="301.4" r="16.5"/><circle cx="322.1" cy="301.4" r="16.5"/></g><g fill="#edebed"><path d="M338.6 293.2H195c-5.7 0-11-3-14-7.9s-3.3-10.9-.7-16l12.6-25.3a8.3 8.3 0 1 1 14.7 7.4L195 276.6h143.6a8.3 8.3 0 1 1 0 16.6z"/><path d="M346.8 185.8h-30.9l3-33-16.4-1.5-3.1 34.5h-26.9v-33H256v33h-25.8l-6.3-38.2-16.3 2.7 5.8 35.5h-31.7v16.5h34.5l7.2 44 16.3-2.7-6.8-41.3H256v41.3h16.5v-41.3h25.4l-3 32.7 16.5 1.4 3.1-34.1h32.3z"/></g><path fill="#fff" d="M210.2 258.6c-11 0-20.7-7.2-23.8-18L158 141.4l-22.2-14.8A8.3 8.3 0 1 1 145 113l22.2 14.8a16.5 16.5 0 0 1 6.6 8.6l181.7 8.2a8.2 8.2 0 0 1 7.7 9.9l-13 65a33 33 0 0 1-28.5 26.3L213 258.4l-3 .2zM178.5 153l23.8 83c1 4 4.8 6.5 8.9 6l108.5-12.7c7.2-.9 12.9-6.2 14.3-13.2l11.1-55.5-166.6-7.6z"/><path fill="#ffe17d" d="M161.5 142.1c-1.5 0-3.1-.4-4.5-1.4l-21.2-14a8.3 8.3 0 1 1 9.2-13.8l21.1 14a8.3 8.3 0 0 1-4.6 15.2z"/><path fill="#dc4655" d="M214.7 351c-91.2 0-165.2-74-165.2-165.2V70.2h-8.2a8.3 8.3 0 0 0-8.3 8.3v280.7c0 4.6 3.7 8.3 8.3 8.3h429.4c4.6 0 8.3-3.7 8.3-8.3V351H214.7z"/></svg>