<svg xmlns="http://www.w3.org/2000/svg" viewBox="0 0 512 512"><circle cx="256" cy="256" r="256" fill="#fa6e62"/><path fill="#eaf3f9" d="M512 256c0-5.4-.2-10.8-.5-16.2a116.1 116.1 0 0 0-98.8-48.8c-58.4 2-109.7 43.3-115 100.4-.9 9.4 2 16.2 2.8 19.7a18 18 0 0 1-3.5 16.2c-11.7 14.1-24.8 30.8-24.8 34.8 0 6.2 15.2 12 19.5 13.5.7.2 1.2.9 1.2 1.6v10.3c0 .8.4 1.6 1 2l7.2 6c.6.5.9 1.3.7 2.1l-.6 2.4c-.7 2.6.1 5.4 2 7.2l5.2 5c10.2 9.9-.3 20 10.6 36 7.3 10.6 20.5 10.8 32.7 6.6l13.9-4.9a5 5 0 0 1 6 2.2A92.3 92.3 0 0 1 382 479C459.6 434.9 512 351.6 512 256z"/><path fill="#c6e0f4" d="M435.5 192.4c-7.4-1.2-15-1.7-22.8-1.4-58.5 2.1-109.9 43.4-115 100.7-.4 4.7 0 9.3 1.3 13.8l1.5 5.6a18 18 0 0 1-3.5 16.2c-11.7 14-24.8 30.8-24.8 34.8 0 6.2 15.2 12 19.5 13.5.7.2 1.2.9 1.2 1.6v10.3c0 .8.4 1.6 1 2l7.2 6c.6.5.9 1.3.7 2.1l-.6 2.4c-.7 2.6.1 5.4 2 7.2l5.2 5c10.2 9.9-.3 20 10.7 36 7.2 10.6 20.6 10.8 32.6 6.6l8.3-3a21 21 0 0 1-3.2-3.6c-7.3-10.8-5.3-20.9-5.6-24.2 0-8.9-6.6-13-7.6-14.3-24.8-24.7-23.9-58.7-7.5-84.2 7.4-11.6-2-18-.6-34 4.8-52.2 48-91.1 100-99z"/><path fill="#eaf3f9" d="M213 305.7c1.2-4.7 1.7-9.5 1.3-14.3-5.3-57.1-56.6-98.3-115-100.4-40.5-1.5-77 18.2-98.8 48.8a255.9 255.9 0 0 0 129.4 239c2.1-9.3 5.7-18.3 10.5-26.7a5 5 0 0 1 6-2.2l14 4.9c12.1 4.2 25.3 4 32.6-6.6 11-16 .5-26.2 10.6-36l5.2-5c1.9-1.8 2.7-4.6 2-7.2l-.6-2.4c-.2-.8.1-1.6.7-2.1l7.2-6c.6-.4 1-1.2 1-2v-10.3c0-.7.5-1.4 1.2-1.6 4.3-1.6 19.5-7.3 19.5-13.5 0-4-13.1-20.7-24.8-34.8-7.6-9.2-2.3-19.3-2-21.6z"/><path fill="#c6e0f4" d="M36.5 353.4c0-68.2 38.4-127.4 94.8-157.2-10.2-3-21-4.8-32-5.2-40.5-1.5-77 18.2-98.8 48.8a254.8 254.8 0 0 0 41 156 178.1 178.1 0 0 1-5-42.4z"/><path fill="#686bdf" d="M225.8 15.8c-57.6-33-133-12.5-166 45.2a121.4 121.4 0 0 0 26 151.8c2.2 2 3.4 5 3.2 7.9l-1.9 32c-.1 1.7 1.9 2.8 3.4 1.9l28.3-18.8c1.5-1 3.4-1.2 5-.6a121.4 121.4 0 0 0 102-219.4z"/><path fill="#4f5ec6" d="M112.2 157.2a121.4 121.4 0 0 1 28-154.4C107.4 9.8 77.5 30 59.8 61a121.4 121.4 0 0 0 26 151.8c2.2 2 3.4 5 3.2 7.9l-1.9 32c-.1 1.7 1.9 2.8 3.4 1.9l28.3-18.8c1.5-1 3.4-1.2 5-.6a121.6 121.6 0 0 0 117.8-19.7 121.4 121.4 0 0 1-129.4-58.3z"/><path fill="#fec50a" d="M286.2 15.8c57.6-33 133-12.5 166 45.2a121.4 121.4 0 0 1-26 151.8 9.7 9.7 0 0 0-3.2 7.9l1.9 32c.1 1.7-1.9 2.8-3.4 1.9l-28.3-18.8a5.7 5.7 0 0 0-5.1-.6A121.4 121.4 0 0 1 286.2 15.8z"/><path fill="#fcad19" d="M289.5 142.8c-24.2-42-21.4-92 2.9-130.3l-6.2 3.3a121.4 121.4 0 0 0 101.9 219.4c1.7-.6 3.6-.4 5 .6l28.4 18.8c1.5 1 3.5-.2 3.4-2l-2-31.9c-.1-3 1-6 3.4-7.9 5.1-4.4 9.8-9.3 14-14.4-56 20-120-2.2-150.8-55.6z"/><g fill="#f9e6bd"><path d="M383.4 77.5a36.8 36.8 0 1 0-45.3 35.7v58a8.6 8.6 0 0 0 16.3 3.6h9.4a8.6 8.6 0 1 0 0-17.1h-8.5V149h8.5a8.6 8.6 0 1 0 0-17.1h-8.5v-18.8a36.8 36.8 0 0 0 28.1-35.7zm-56.3 0a19.6 19.6 0 1 1 39.3 0 19.6 19.6 0 0 1-39.3 0zM191.4 117.2a8.6 8.6 0 0 1-8.5-8.6V84.8a18.3 18.3 0 0 0-36.7 0v23.8a8.6 8.6 0 0 1-17.1 0V84.8a35.5 35.5 0 0 1 71 0v23.8c0 4.8-4 8.6-8.7 8.6z"/></g><path fill="#fcdb7e" d="M169.2 62c0-5.3 4.2-9.6 9.5-9.7a35.5 35.5 0 0 0-49.6 32.5v23.8a8.6 8.6 0 1 0 17.1 0V84.8A18.3 18.3 0 0 1 171 67.7a9.6 9.6 0 0 1-1.8-5.7z"/><path fill="#fcad19" d="M199 171h-69a7.7 7.7 0 0 1-7.6-7.7v-52.7c0-4.3 3.4-7.7 7.6-7.7h69c4.3 0 7.7 3.4 7.7 7.7v52.7c0 4.3-3.4 7.7-7.6 7.7z"/><path fill="#ed9811" d="M155.4 163.3v-52.7c0-4.3 3.5-7.7 7.7-7.7h-33a7.7 7.7 0 0 0-7.7 7.7v52.7c0 4.3 3.4 7.7 7.6 7.7h33a7.7 7.7 0 0 1-7.6-7.7z"/><path fill="#fec50a" d="M164.6 134.6a8.6 8.6 0 1 1 0-17.1 8.6 8.6 0 0 1 0 17z"/></svg>