<svg xmlns="http://www.w3.org/2000/svg" viewBox="0 0 464 464"><path fill="#126099" d="M320 0H144a32 32 0 0 0-32 32v16h240V32a32 32 0 0 0-32-32zm0 0M112 432a32 32 0 0 0 32 32h176a32 32 0 0 0 32-32v-32H112zm0 0"/><path fill="#4398d1" d="M112 48h240v352H112zm0 0"/><path fill="#3e8cc7" d="M240 212a107.7 107.7 0 0 0-128-106v212c6.6 1.3 13.3 2 20 2l4-.2V336h24v-19.8A108 108 0 0 0 240 212zm0 0"/><path fill="#3e8cc7" d="M112 384v16h240V144zm0 0"/><path fill="#3181bd" d="M224 424h16v16h-16zm0 0"/><path fill="#126099" d="M240 200a96 96 0 1 1-192 0 96 96 0 0 1 192 0zm0 0"/><path fill="#fec9a3" d="M176 184a32 32 0 1 1-64 0 32 32 0 0 1 64 0zm0 0"/><path fill="#e3584b" d="M304 280l131-115.6a17.4 17.4 0 0 1 24.6 24.5L344 320zm0 0"/><path fill="#87ced9" d="M304 280a48 48 0 0 0-48 48v14.1c0 11-6.2 21-16 25.9h56a48 48 0 0 0 48-48zm0 0M0 360h176v64H0zm0 0"/><path fill="#5eb3d1" d="M24 384h40v16H24zm0 0M80 384h72v16H80zm0 0"/><path fill="#87ced9" d="M0 32h80v64H0zm0 0"/><path fill="#5eb3d1" d="M24 56h32v16H24zm0 0"/><path fill="#e3584b" d="M144 216a48 48 0 0 0-48 48v19.1a95.8 95.8 0 0 0 96 0V264a48 48 0 0 0-48-48zm0 0"/><path fill="#e3584b" d="M272 192h-24.4A104 104 0 0 0 152 96.4V72h-16v24.4A104 104 0 0 0 40.4 192H16v16h24.4a103.5 103.5 0 0 0 95.6 95.6V328h16v-24.4a103.5 103.5 0 0 0 95.6-95.6H272zm-69.3 73.6a87.6 87.6 0 0 1-50.7 22V272h-16v15.6A87.8 87.8 0 0 1 56.4 208H72v-16H56.4a88 88 0 0 1 79.6-79.6V128h16v-15.6a88 88 0 0 1 79.6 79.6H216v16h15.6a88 88 0 0 1-29 57.6zm0 0"/><path fill="#3e8cc7" d="M256 48h96v96h-96zm0 0"/><path fill="#87ced9" d="M272 32h176v96H272zm0 0"/><g fill="#5eb3d1"><path d="M296 56h32v16h-32zm0 0M344 56h80v16h-80zm0 0M296 88h128v16H296zm0 0"/></g></svg>