<svg height="35" viewBox="0 0 163 35" width="163" xmlns="http://www.w3.org/2000/svg" xmlns:xlink="http://www.w3.org/1999/xlink"><mask id="a" fill="#fff"><path d="m0 27h119v-27h-119z" fill="#fff" fill-rule="evenodd"/></mask><g fill="#000" fill-rule="evenodd"><path d="m17.0240871 0c-2.2241497 0-4.4201456.56112808-6.3503867 1.62265429-1.10951544.61021119-2.12049257 1.37391108-3.00477764 2.27030175l-.16465703.16721533.16806961.16347171 2.32738028 2.26988579.17660108.17179088.1710556-.17719834c.5647822-.58483771 1.2140257-1.09688269 1.9298146-1.52074444 1.430298-.84273202 3.0717495-1.28863958 4.7469002-1.28863958 5.0745081 0 9.202878 4.02564681 9.202878 8.97388971 0 1.374327-.3105449 2.6924996-.9239563 3.9179135-.4850131.9729271-1.1427881 1.8460241-1.955409 2.5955814-.102804.0960864-.1983563.1809419-.2922022.26039-.7021386.5952367-1.4891651 1.0827401-2.3401775 1.4487836-.311398.1331068-.6134114.2433358-.9226766.3369265-.848453.2612219-1.7284723.3993202-2.6178762.410551h-.0081049l-.0085315.000832c-.0379649.0029117-.0776362.0033276-.1164543.0033276h-.0174895c-.0639859 0-.1275452-.0012479-.1889716-.0029117v-14.3771912-.23626445h-.2427199-3.2884484-.2418667v.23626445 2.44791605c-.0285803-.00041596-.0575873-.00041596-.0861676-.00041596-.0520419 0-.1036572.00041596-.155699.00124788-.0503356.00041595-.1006712.00083191-.1510068.00083191-.8002502.01996601-1.5906893.1093971-2.3551075.26662943-.56947442.11480459-1.13937545.27120499-1.6934933.46545759-.80664884.2803561-1.59324878.6447358-2.33676487 1.0831561-.86850188.511213-1.67131157 1.1185125-2.3862473 1.805676-.30585258.2903391-.60445342.6052197-.88599135.9342429-1.94175862 2.2686379-3.01160278 5.1437434-3.01160278 8.0958012 0 6.9768727 5.82101012 12.6526271 12.9759129 12.6526271 2.1947162 0 4.3672506-.5478174 6.2825617-1.5848021 1.0920259-.5898292 2.094045-1.3352269 2.9787567-2.2162271l.1672164-.1667994-.1693493-.1651355-2.3231146-2.2657262-.1740416-.1692952-.1710556.171375c-.569901.5711111-1.2118929 1.0640219-1.9080594 1.4654219-1.4132351.8194384-3.0325048 1.2524512-4.6829143 1.2524512-5.07450805 0-9.20287798-4.0256468-9.20287798-8.9738897 0-1.3718313.31097145-2.6904199.92438289-3.9179135.4692299-.9388185 1.09586509-1.7827984 1.86241611-2.509062.12754522-.1218758.25295757-.2354325.38562166-.3469094.94272551-.7978085 2.0168354-1.3909654 3.19246962-1.7628323.8177397-.2599741 1.6717381-.4051437 2.5389603-.431349.0998179-.0041596.1992094-.0062394.2990274-.0062394.0285803 0 .0575873.0004159.0861676.0012479v14.2311897.2362645h.2418667 3.2884484.2427199v-.2362645-2.3010827c.0631327.000832.126692.0012479.1889716.0012479.0537482 0 .1096292 0 .1633774-.0020798 1.4059833-.0153904 2.7936241-.2524868 4.117279-.7038018.7294392-.251239 1.439256-.5661196 2.1106814-.9367387.1015243-.0565704.2021954-.1148046.3007337-.1726228.822432-.4837598 1.5936753-1.0606943 2.2915481-1.7149971.3395519-.3157125.6701456-.6609581.9806905-1.0249218 1.9421852-2.268638 3.0116028-5.1441594 3.0116028-8.097881 0-6.97687273-5.8210101-12.6526271-12.9759129-12.6526271"/><g transform="translate(44 3)"><path d="m6.91522095 19.4848976c.79018003 0 1.44418985-.2861868 1.96202946-.8585603.51718494-.5723735.77643208-1.3438629.77643208-2.313793v-2.6479025c0-.9706051-.25924714-1.7414195-.77643208-2.313793-.51783961-.5716986-1.17184943-.8585603-1.96202946-.8585603s-1.44418985.1991158-1.9613748.5966724c-.5178396.3975566-.77643207.9456313-.77643207 1.6442239v4.5108164c0 .6985927.25859247 1.2466674.77643207 1.644224.51718495.3975566 1.17119477.5966724 1.9613748.5966724zm-6.91522095-12.13526377h4.17741408v2.56015659h.14140752c.20621932-.85248557.68150573-1.55107826 1.42520459-2.0951031.74304419-.5426749 1.59410802-.81468732 2.55450081-.81468732 1.8815057 0 3.3021277.67969356 4.2618658 2.03705579.9597381 1.35803721 1.4396072 3.33772061 1.4396072 5.93635041 0 2.6006547-.4798691 4.583713-1.4396072 5.9518748-.9597381 1.3674867-2.3803601 2.0519051-4.2618658 2.0519051-.48968903 0-.95057283-.0735716-1.38330605-.218015-.43273322-.1457932-.82356792-.3496338-1.17119476-.6121966-.34828151-.261213-.64484452-.5710236-.88903437-.931457-.24484452-.3584084-.42356792-.7411157-.53617022-1.1487968h-.14140752v6.9332793h-4.17741408z"/><path d="m23.1139828 10.1768831c-.8568589 0-1.5288271.2865954-2.0145792.8591103-.4850895.5738668-.7282969 1.3363187-.7282969 2.2880318v.2331967h5.2571239v-.2622618c0-.932787-.2047714-1.6850999-.6136514-2.2589667-.4102054-.5725149-1.0437376-.8591103-1.9005964-.8591103m.085487 12.8231169c-1.1424784 0-2.1616964-.1899371-3.0569913-.5684593-.8952949-.3791982-1.6527502-.9131849-2.2710405-1.6033121-.6196156-.6894512-1.0861497-1.5296354-1.400265-2.5205525-.3141153-.9909172-.471173-2.0980948-.471173-3.3228846 0-1.2038359.1517561-2.2968189.4565938-3.277597.3048376-.9814541.7574552-1.82231427 1.3571902-2.52190448.6003976-.69891429 1.3379721-1.23830848 2.2147117-1.61683072.8760769-.37919818 1.8754142-.5684593 3-.5684593 1.2379059 0 2.3001988.21427063 3.1855533.64146001.8860173.42718939 1.6090126 1.00038022 2.1716369 1.71889654.5612989.71919225.9715043 1.54991345 1.2286282 2.49216345s.3856859 1.9284356.3856859 2.9578809v1.2822441h-9.6288933v.2318449c0 1.0010561.2664016 1.7959528.7998675 2.3833382.5334658.5880614 1.3717693.8820921 2.5142478.8820921.8760769 0 1.5904573-.1784462 2.1431412-.5346627.5520212-.3568924 1.0669317-.7854337 1.5427435-1.2869756l2.1146455 2.6888598c-.6673294.7989523-1.5387674 1.4221621-2.6143142 1.8703054-1.0768721.4481433-2.3001988.6725529-3.6719682.6725529"/><path d="m37.349815 22c-1.4176152 0-2.4894707-.3706447-3.2162066-1.1112734-.7273762-.7406287-1.090424-1.8228319-1.090424-3.2472703v-7.3210585h-2.0431844v-3.27567981h1.0219124c.5519351 0 .9290694-.13742263 1.1314029-.41292857.2023335-.27484527.3035003-.66927464.3035003-1.18196676v-2.44982266h3.6720973v4.04471799h2.8710871v3.27567981h-2.8710871v8.4039224h2.650185v3.2756798z"/><path d="m43.3485707 23h4.3021844v-14.71963832h-4.3021844zm2.1514293-16.2894036c-.872438 0-1.506877-.1918313-1.9046656-.57419335-.3971143-.38301233-.5953344-.8739704-.5953344-1.47222395v-.61646126c0-.59825354.1982201-1.08921162.5953344-1.47287422.3977886-.38236204 1.0322276-.57484362 1.9046656-.57484362.8717638 0 1.5062028.19248158 1.9033172.57484362.3971143.3836626.5966828.87462068.5966828 1.47287422v.61646126c0 .59825355-.1995685 1.08921162-.5966828 1.47222395-.3971144.38236205-1.0315534.57419335-1.9033172.57419335z" mask="url(#a)"/><path d="m56.349815 22c-1.4176152 0-2.4894707-.3706447-3.2162066-1.1112734-.7273762-.7406287-1.0910643-1.8228319-1.0910643-3.2472703v-7.3210585h-2.0425441v-3.27567981h1.0212721c.5525754 0 .9290694-.13742263 1.1320432-.41292857.2023335-.27484527.3035003-.66927464.3035003-1.18196676v-2.44982266h3.671457v4.04471799h2.8717274v3.27567981h-2.8717274v8.4039224h2.6508253v3.2756798z" mask="url(#a)"/><path d="m68.4222152 23c-1.0160934 0-1.9236352-.1869111-2.7213632-.5586868-.7983591-.3724579-1.4692332-.9065871-2.0138845-1.6030698-.5440202-.6958004-.9611865-1.539629-1.2514989-2.5294393s-.4354686-2.0928587-.4354686-3.3091452c0-1.2156043.1451562-2.3186527.4354686-3.308463s.7074787-1.83363888 1.2514989-2.52943934c.5446513-.69580047 1.2155254-1.23061181 2.0138845-1.60306971.797728-.3724579 1.7052698-.55868685 2.7213632-.55868685 1.4143263 0 2.5755759.34312513 3.4831177 1.0293754.9062796.68693242 1.5683181 1.59829461 1.9861155 2.7347687l-2.4493531 1.2360691c-.199432-.7060329-.548438-1.2694948-1.047018-1.691068-.4998422-.42225541-1.1568318-.63235987-1.9728621-.63235987-1.0886715 0-1.9091196.36631847-2.4626065 1.09963757-.5534869.7333192-.8299148 1.6869751-.8299148 2.8589214v2.7279471c0 1.1733106.2764279 2.1269665.8299148 2.8602857.5534869.7333191 1.373935 1.0996376 2.4626065 1.0996376.8703061 0 1.5645314-.2305692 2.0814137-.6910254s.9296308-1.0737156 1.2382455-1.838414l2.2581256 1.2947346c-.4720732 1.2592624-1.1789208 2.2265615-2.1224361 2.9005329-.9435153.6732893-2.0952982 1.0109572-3.4553487 1.0109572" mask="url(#a)"/><path d="m81.5003154 20.3232147c1.0143141 0 1.8305595-.3363036 2.4474744-1.0089107.6156534-.6732893.9247416-1.6815178.9247416-3.0274142v-2.5737796c0-1.3458964-.3090882-2.3554892-.9247416-3.0274142-.6169149-.6726071-1.4331603-1.00891067-2.4474744-1.00891067-1.0155757 0-1.8318211.33630357-2.4481052 1.00891067-.6162841.671925-.9247416 1.6815178-.9247416 3.0274142v2.5737796c0 1.3458964.3084575 2.3541249.9247416 3.0274142.6162841.6726071 1.4325295 1.0089107 2.4481052 1.0089107m0 2.6767853c-.9796206 0-1.8728226-.1875933-2.6789752-.559369-.8067835-.3717757-1.491824-.9065871-2.05386-1.6023876-.5626668-.6964826-.9972827-1.539629-1.3051094-2.5294393-.3090883-.9898103-.4623708-2.0928587-.4623708-3.3091452 0-1.2156043.1532825-2.3186527.4623708-3.308463.3078267-.9898103.7424426-1.83363888 1.3051094-2.52943934.562036-.69580047 1.2470765-1.23061181 2.05386-1.60306971.8061526-.3724579 1.6993546-.55868685 2.6789752-.55868685.9789898 0 1.871561.18622895 2.6783444.55868685.8061527.3724579 1.4911932.90726924 2.0532292 1.60306971.562036.69580046.9972827 1.53962904 1.3057402 2.52943934s.4623708 2.0928587.4623708 3.308463c0 1.2162865-.1539133 2.3193349-.4623708 3.3091452s-.7437042 1.8329567-1.3057402 2.5294393c-.562036.6958005-1.2470765 1.2306119-2.0532292 1.6023876-.8067834.3717757-1.6993546.559369-2.6783444.559369" mask="url(#a)"/><path d="m96.6814344 20.3742714c.9278335 0 1.707162-.2279864 2.3379855-.683959.6314691-.4559726.946558-1.0563797.946558-1.8012213v-4.9710083c0-.7441939-.3150889-1.344601-.946558-1.8005736-.6308235-.4559726-1.410152-.6846066-2.3379855-.6846066-1.0582597 0-1.9028012.3406841-2.5336247 1.0201092-.6308235.6787774-.9465581 1.5771211-.9465581 2.6943836v2.5136785c0 1.1166148.3157346 2.0149585.9465581 2.6943836.6308235.6800728 1.475365 1.0188139 2.5336247 1.0188139zm3.2845435-.1114024h-.1394655c-.3150889.856244-.8303368 1.5272491-1.5444522 2.0110723-.7154068.4838232-1.554783.7260587-2.5194199.7260587-1.8375881 0-3.2574252-.6658236-4.2595113-1.9968232-1.002086-1.3309996-1.503129-3.1976375-1.503129-5.599266s.501043-4.2682664 1.503129-5.59861826c1.0020861-1.3309996 2.4219232-1.99682324 4.2595113-1.99682324.9646369 0 1.8040131.23705394 2.5194199.71180951.7141154.47475558 1.2293633 1.15029455 1.5444522 2.02467389h.1394655v-8.5449527h3.0340221v20.6644974h-3.0340221z" mask="url(#a)"/><path d="m112.610343 9.50010659c-.516433 0-.991166.09823065-1.4242.2940098-.433676.19646131-.802556.47068851-1.106001.82404601-.304727.3519932-.539528.7742486-.705685 1.2640376-.166157.4904711-.249556 1.0293754-.249556 1.617395v.2060115h6.694384v-.2940098c0-1.1760392-.286123-2.1221915-.857728-2.8384566-.572246-.71558308-1.354915-1.07303351-2.351214-1.07303351m0 13.49989341c-1.032224 0-1.954747-.1869111-2.766285-.5586868-.810896-.3724579-1.502467-.9065871-2.074072-1.6030698-.572246-.6958004-1.009771-1.539629-1.313857-2.5294393s-.456129-2.0928587-.456129-3.308463c0-1.2162865.152043-2.3193349.456129-3.3091452s.741611-1.83363888 1.313857-2.52943934c.571605-.69580047 1.263176-1.23061181 2.074072-1.60306971.811538-.3724579 1.734061-.55868685 2.766285-.55868685 1.051471 0 1.977843.19646131 2.779758.58801961.801914.39224046 1.470391.93660201 2.005428 1.63240247.534396.69648263.935995 1.50552122 1.203514 2.42643362.266877.9222767.400957 1.9114048.400957 2.9707951v1.2060542h-9.875099v.4966105c0 1.1692176.327823 2.1276487.982827 2.8780217.653721.7496909 1.589716 1.1248775 2.807343 1.1248775.884672 0 1.632057-.2046472 2.240229-.6132595.608172-.4092944 1.124605-.9645704 1.548658-1.6665103l1.770627 1.8588787c-.535037.9441057-1.309366 1.6958431-2.323628 2.2572586-1.014261.5600511-2.19468.8404178-3.540614.8404178" mask="url(#a)"/></g></g></svg>