<svg height="35" viewBox="0 0 30 35" width="30" xmlns="http://www.w3.org/2000/svg"><path d="m17.0240871 0c-2.2241497 0-4.4201456.56112808-6.3503867 1.62265429-1.10951544.61021119-2.12049257 1.37391108-3.00477764 2.27030175l-.16465703.16721533.16806961.16347171 2.32738028 2.26988579.17660108.17179088.1710556-.17719834c.5647822-.58483771 1.2140257-1.09688269 1.9298146-1.52074444 1.430298-.84273202 3.0717495-1.28863958 4.7469002-1.28863958 5.0745081 0 9.202878 4.02564681 9.202878 8.97388971 0 1.374327-.3105449 2.6924996-.9239563 3.9179135-.4850131.9729271-1.1427881 1.8460241-1.955409 2.5955814-.102804.0960864-.1983563.1809419-.2922022.26039-.7021386.5952367-1.4891651 1.0827401-2.3401775 1.4487836-.311398.1331068-.6134114.2433358-.9226766.3369265-.848453.2612219-1.7284723.3993202-2.6178762.410551h-.0081049l-.0085315.000832c-.0379649.0029117-.0776362.0033276-.1164543.0033276h-.0174895c-.0639859 0-.1275452-.0012479-.1889716-.0029117v-14.3771912-.23626445h-.2427199-3.2884484-.2418667v.23626445 2.44791605c-.0285803-.00041596-.0575873-.00041596-.0861676-.00041596-.0520419 0-.1036572.00041596-.155699.00124788-.0503356.00041595-.1006712.00083191-.1510068.00083191-.8002502.01996601-1.5906893.1093971-2.3551075.26662943-.56947442.11480459-1.13937545.27120499-1.6934933.46545759-.80664884.2803561-1.59324878.6447358-2.33676487 1.0831561-.86850188.511213-1.67131157 1.1185125-2.3862473 1.805676-.30585258.2903391-.60445342.6052197-.88599135.9342429-1.94175862 2.2686379-3.01160278 5.1437434-3.01160278 8.0958012 0 6.9768727 5.82101012 12.6526271 12.9759129 12.6526271 2.1947162 0 4.3672506-.5478174 6.2825617-1.5848021 1.0920259-.5898292 2.094045-1.3352269 2.9787567-2.2162271l.1672164-.1667994-.1693493-.1651355-2.3231146-2.2657262-.1740416-.1692952-.1710556.171375c-.569901.5711111-1.2118929 1.0640219-1.9080594 1.4654219-1.4132351.8194384-3.0325048 1.2524512-4.6829143 1.2524512-5.07450805 0-9.20287798-4.0256468-9.20287798-8.9738897 0-1.3718313.31097145-2.6904199.92438289-3.9179135.4692299-.9388185 1.09586509-1.7827984 1.86241611-2.509062.12754522-.1218758.25295757-.2354325.38562166-.3469094.94272551-.7978085 2.0168354-1.3909654 3.19246962-1.7628323.8177397-.2599741 1.6717381-.4051437 2.5389603-.431349.0998179-.0041596.1992094-.0062394.2990274-.0062394.0285803 0 .0575873.0004159.0861676.0012479v14.2311897.2362645h.2418667 3.2884484.2427199v-.2362645-2.3010827c.0631327.000832.126692.0012479.1889716.0012479.0537482 0 .1096292 0 .1633774-.0020798 1.4059833-.0153904 2.7936241-.2524868 4.117279-.7038018.7294392-.251239 1.439256-.5661196 2.1106814-.9367387.1015243-.0565704.2021954-.1148046.3007337-.1726228.822432-.4837598 1.5936753-1.0606943 2.2915481-1.7149971.3395519-.3157125.6701456-.6609581.9806905-1.0249218 1.9421852-2.268638 3.0116028-5.1441594 3.0116028-8.097881 0-6.97687273-5.8210101-12.6526271-12.9759129-12.6526271" fill-rule="evenodd"/></svg>
