<svg xmlns="http://www.w3.org/2000/svg" viewBox="0 0 326 100"><path fill="currentColor" fill-rule="nonzero" d="M109.42 45.49H117v4.5h.26a6.26 6.26 0 0 1 2.66-3.68 7.76 7.76 0 0 1 4.55-1.44 8.95 8.95 0 0 1 7.72 3.59c1.77 2.39 2.66 5.87 2.66 10.44 0 4.58-.89 8.07-2.66 10.48a8.92 8.92 0 0 1-7.72 3.62 7.8 7.8 0 0 1-4.63-1.45 6.8 6.8 0 0 1-2.6-3.66h-.26v12.2h-7.56l.01-34.6zm12.54 21.35a4.66 4.66 0 0 0 3.56-1.51 5.77 5.77 0 0 0 1.4-4.08V56.6a5.76 5.76 0 0 0-1.4-4.06c-.91-1-2.2-1.54-3.56-1.51a5.75 5.75 0 0 0-3.55 1.05 3.41 3.41 0 0 0-1.42 2.9v7.96a3.42 3.42 0 0 0 1.42 2.89 5.83 5.83 0 0 0 3.55 1.02zM150.73 73c-1.88.03-3.74-.3-5.49-1a11.22 11.22 0 0 1-6.57-7.23 18.75 18.75 0 0 1-.85-5.84c-.02-1.95.26-3.9.83-5.76.49-1.63 1.32-3.14 2.43-4.43 1.1-1.24 2.45-2.2 3.98-2.84 1.68-.68 3.49-1.02 5.3-1a13.2 13.2 0 0 1 5.71 1.13 10.8 10.8 0 0 1 3.9 3.03 12.21 12.21 0 0 1 2.2 4.36c.46 1.7.69 3.45.69 5.2v2.25h-17.17v.41a5.22 5.22 0 0 0 5.94 5.73 7 7 0 0 0 3.85-.94c1-.64 1.93-1.4 2.76-2.26l3.78 4.73a11.84 11.84 0 0 1-4.67 3.28c-2.11.82-4.36 1.23-6.62 1.18zm-.16-22.56a4.53 4.53 0 0 0-3.55 1.52 5.97 5.97 0 0 0-1.33 3.98v.42h9.43v-.47a6.64 6.64 0 0 0-1.1-3.98 3.98 3.98 0 0 0-3.45-1.47zm26.62 21.92a8.2 8.2 0 0 1-5.97-1.99 7.96 7.96 0 0 1-2.02-5.84V51.38h-3.78v-5.9h1.88c.78.1 1.56-.17 2.11-.72.41-.64.6-1.39.56-2.14v-4.4h6.8v7.27h5.32v5.89h-5.31v15.1h4.91v5.88h-4.5zm13.98-29.74a4.6 4.6 0 0 1-3.36-1.05 3.6 3.6 0 0 1-1.05-2.65v-1.13a3.6 3.6 0 0 1 1.05-2.66 5.88 5.88 0 0 1 6.7 0 3.6 3.6 0 0 1 1.05 2.66v1.13a3.6 3.6 0 0 1-1.05 2.65 4.58 4.58 0 0 1-3.34 1.05zm-3.8 2.87h7.58v26.87h-7.58V45.5zm24.06 26.87a8.2 8.2 0 0 1-6-2.02 7.96 7.96 0 0 1-2.03-5.84V51.38h-3.78v-5.9h1.89c.77.1 1.55-.17 2.1-.72.42-.64.61-1.39.56-2.14v-4.4h6.81v7.27h5.31v5.89H211v15.1h4.9v5.88h-4.46zm20.94.64c-1.76.03-3.5-.3-5.13-.97a10.2 10.2 0 0 1-3.78-2.79 12.6 12.6 0 0 1-2.35-4.4 20.53 20.53 0 0 1 0-11.51 12.6 12.6 0 0 1 2.35-4.4 10.2 10.2 0 0 1 3.78-2.8 12.82 12.82 0 0 1 5.13-1c2.31-.1 4.6.53 6.55 1.79a10.37 10.37 0 0 1 3.73 4.76l-4.6 2.15a5.46 5.46 0 0 0-5.68-4.04 5.6 5.6 0 0 0-4.64 1.97 7.65 7.65 0 0 0-1.56 4.98v4.74a7.65 7.65 0 0 0 1.56 4.88 5.63 5.63 0 0 0 4.64 1.91c1.4.08 2.79-.34 3.91-1.19 1-.86 1.8-1.94 2.32-3.16l4.25 2.26a10.62 10.62 0 0 1-3.98 5.04 11.57 11.57 0 0 1-6.5 1.78zm24.92 0a12.7 12.7 0 0 1-5.04-.97 10.7 10.7 0 0 1-3.86-2.79 12.78 12.78 0 0 1-2.46-4.4 19.62 19.62 0 0 1 0-11.51 12.78 12.78 0 0 1 2.46-4.4 10.7 10.7 0 0 1 3.86-2.8c3.23-1.3 6.85-1.3 10.08 0 1.49.63 2.8 1.58 3.87 2.8a12.57 12.57 0 0 1 2.45 4.4 19.34 19.34 0 0 1 0 11.5 12.57 12.57 0 0 1-2.45 4.41 10.62 10.62 0 0 1-3.87 2.8c-1.6.65-3.3.98-5.04.96zm0-4.66a6.2 6.2 0 0 0 4.6-1.75 7.15 7.15 0 0 0 1.75-5.31v-4.46a7.15 7.15 0 0 0-1.74-5.3 6.89 6.89 0 0 0-9.21 0 7.2 7.2 0 0 0-1.74 5.3v4.47a7.2 7.2 0 0 0 1.74 5.31 6.21 6.21 0 0 0 4.6 1.71v.03zm34.15-.38h-.26a7.34 7.34 0 0 1-2.84 3.71 8.06 8.06 0 0 1-4.61 1.33 9.3 9.3 0 0 1-7.83-3.65c-1.86-2.46-2.79-5.9-2.79-10.3s.92-7.83 2.76-10.26a9.3 9.3 0 0 1 7.86-3.66 8.15 8.15 0 0 1 4.63 1.32 7.2 7.2 0 0 1 2.84 3.7h.27V34.52H297v37.85h-5.57l.01-4.4zm-6.05.2a7.14 7.14 0 0 0 4.3-1.32 3.86 3.86 0 0 0 1.75-3.3V54.5a3.88 3.88 0 0 0-1.75-3.3 7.14 7.14 0 0 0-4.3-1.26 6.03 6.03 0 0 0-4.65 1.88 6.93 6.93 0 0 0-1.75 4.93v4.6a6.93 6.93 0 0 0 1.75 5.01 6.03 6.03 0 0 0 4.65 1.8zm28 4.84c-1.75.03-3.5-.3-5.12-.97a10.71 10.71 0 0 1-3.83-2.79 12.32 12.32 0 0 1-2.43-4.4 19.9 19.9 0 0 1 0-11.51c.5-1.62 1.32-3.12 2.43-4.4a10.71 10.71 0 0 1 3.83-2.8 12.78 12.78 0 0 1 5.12-.98 12.1 12.1 0 0 1 5.15 1.04c1.43.64 2.69 1.6 3.68 2.81a12.13 12.13 0 0 1 2.23 4.22c.5 1.68.76 3.42.74 5.17v2.1h-18.25v.87a7.07 7.07 0 0 0 1.82 5 6.74 6.74 0 0 0 5.2 1.95c1.45.06 2.9-.31 4.15-1.06a9.3 9.3 0 0 0 2.86-2.9l3.28 3.23a10.62 10.62 0 0 1-4.3 3.99c-2.04 1-4.29 1.5-6.56 1.43zm0-23.5a6.64 6.64 0 0 0-2.65.52 6.05 6.05 0 0 0-3.37 3.64c-.32.9-.47 1.86-.47 2.81v.36h12.39v-.51a7.35 7.35 0 0 0-1.58-4.94 5.42 5.42 0 0 0-4.32-1.9v.03zM48.41 0a36.11 36.11 0 0 0-26.04 11.1l-.46.49.47.46 6.52 6.53.49.5.43-.5a25.64 25.64 0 0 1 44.2 17.53 25.76 25.76 0 0 1-7.96 18.6l-.82.74a25.84 25.84 0 0 1-9.08 5.1 25.58 25.58 0 0 1-7.36 1.17h-.92v-41.7h-10.5v7.65h-1.1a35.69 35.69 0 0 0-11.26 2.1 34.7 34.7 0 0 0-6.5 3.1A35.36 35.36 0 0 0 11.88 38a36.09 36.09 0 0 0 51.03 51.03l.47-.47-.48-.47-6.46-6.47-.48-.48-.48.49a25.6 25.6 0 1 1-36.2-36.2 25.58 25.58 0 0 1 16.99-7.26h1.08v41.28h10.53v-7.23h.92a35.73 35.73 0 0 0 17.34-4.66l.84-.5a36.67 36.67 0 0 0 9.1-7.82A36.09 36.09 0 0 0 48.41 0z"/></svg>
