<svg xmlns="http://www.w3.org/2000/svg" viewBox="0 0 100 100"><path d="M55.64 0C49.29 0 43.01 1.6 37.5 4.64a37.3 37.3 0 0 0-8.59 6.48l-.47.48.48.47 6.65 6.48.5.5.5-.51a26.26 26.26 0 0 1 5.5-4.35 26.73 26.73 0 0 1 13.57-3.68c14.5 0 26.3 11.5 26.3 25.64 0 3.93-.9 7.7-2.65 11.2a25.6 25.6 0 0 1-6.42 8.15 26.55 26.55 0 0 1-16.8 6.28h-.05l-.33.01H55.1V20.02H44.32v7.67H43.2a38.17 38.17 0 0 0-11.57 2.1A37.26 37.26 0 0 0 15.6 40.72 35.63 35.63 0 0 0 7 63.85C7 83.78 23.63 100 44.07 100a37.8 37.8 0 0 0 17.95-4.53 36.93 36.93 0 0 0 8.51-6.33l.48-.48-.48-.47-6.64-6.47-.5-.49-.48.5a26.7 26.7 0 0 1-18.83 7.77c-14.5-.01-26.3-11.51-26.3-25.65 0-3.92.89-7.69 2.64-11.2a25.64 25.64 0 0 1 6.42-8.15 26.35 26.35 0 0 1 16.38-6.27 20.49 20.49 0 0 1 1.1-.02V79.55H55.1V72.3h1.01a37.7 37.7 0 0 0 18.65-5.18 37.06 37.06 0 0 0 9.35-7.83 35.63 35.63 0 0 0 8.6-23.14C92.71 16.22 76.08 0 55.64 0"/></svg>