<svg xmlns="http://www.w3.org/2000/svg" viewBox="0 0 163 35"><g fill="currentColor" fill-rule="evenodd"><path d="M17 0a13.2 13.2 0 0 0-9.3 3.9l-.2.2.2.1L10 6.5l.2.2.1-.2A9.2 9.2 0 0 1 17 3.7c5.1 0 9.2 4 9.2 9a8.7 8.7 0 0 1-3.1 6.7 9.3 9.3 0 0 1-6 2.2h-.3V7h-3.7v2.7H13h-.2-.1A13.4 13.4 0 0 0 3 14.3c-2 2.2-3 5.1-3 8C0 29.3 5.8 35 13 35a13.2 13.2 0 0 0 9.2-3.8l.2-.2-.2-.1-2.3-2.3-.2-.2-.1.2a9.2 9.2 0 0 1-6.6 2.7c-5.1 0-9.2-4-9.2-9a8.7 8.7 0 0 1 3.1-6.7 9.2 9.2 0 0 1 6.2-2.2V27.8h3.7v-2.5h.4a13.2 13.2 0 0 0 9.8-4.5c2-2.3 3-5.2 3-8.1C30 5.7 24.2 0 17 0M51 22.5c.7 0 1.4-.3 1.9-.9.5-.5.8-1.3.8-2.3v-2.6c0-1-.3-1.8-.8-2.3-.5-.6-1.2-1-2-1s-1.4.3-2 .7a2 2 0 0 0-.7 1.6v4.5c0 .7.2 1.3.8 1.7.5.4 1.1.6 2 .6zm-7-12.2h4.2V13h.1c.2-.8.7-1.5 1.4-2 .8-.6 1.6-.9 2.6-.9 1.9 0 3.3.7 4.3 2 1 1.4 1.4 3.4 1.4 6s-.5 4.6-1.4 6c-1 1.3-2.4 2-4.3 2a4.3 4.3 0 0 1-2.6-.9 3.9 3.9 0 0 1-1.4-2h-.1V30H44zM67.1 13.2c-.8 0-1.5.3-2 .8-.5.6-.7 1.4-.7 2.3v.3h5.2v-.3c0-1-.2-1.7-.6-2.3-.4-.5-1-.8-1.9-.8m.1 12.8c-1.1 0-2.2-.2-3-.6a6.3 6.3 0 0 1-3.7-4A11 11 0 0 1 60 18c0-1.2.2-2.3.5-3.3a7 7 0 0 1 1.3-2.5 6 6 0 0 1 2.2-1.6c.9-.4 1.9-.6 3-.6 1.3 0 2.3.2 3.2.6a6 6 0 0 1 2.2 1.8c.5.7 1 1.5 1.2 2.5s.4 1.9.4 3V19h-9.6v.2c0 1 .2 1.8.8 2.4.5.6 1.3.9 2.5.9.9 0 1.6-.2 2.1-.5l1.6-1.3 2 2.7c-.6.8-1.5 1.4-2.5 1.8-1.1.5-2.3.7-3.7.7M81.3 25c-1.4 0-2.4-.4-3.2-1.1-.7-.8-1-1.8-1-3.3v-7.3H75V10h1c.6 0 1 0 1.2-.4.2-.2.3-.6.3-1.2V6H81v4H84v3.3h-2.9v8.4h2.7V25z"/><path d="M43.3 23h4.4V8.3h-4.4zm2.2-16.3c-.9 0-1.5-.2-1.9-.6a2 2 0 0 1-.6-1.4V4c0-.6.2-1 .6-1.4.4-.4 1-.6 1.9-.6.9 0 1.5.2 1.9.6.4.4.6.8.6 1.4v.7c0 .6-.2 1-.6 1.4-.4.4-1 .6-1.9.6zM56.3 22c-1.4 0-2.4-.4-3.2-1.1-.7-.8-1-1.8-1-3.3v-7.3H50V7h1c.6 0 1 0 1.2-.4.2-.2.3-.6.3-1.2V3H56v4H59v3.3h-2.9v8.4h2.7V22zM68.4 23c-1 0-1.9-.2-2.7-.6-.8-.3-1.5-.9-2-1.6-.6-.7-1-1.5-1.3-2.5s-.4-2-.4-3.3c0-1.2.1-2.3.4-3.3s.7-1.8 1.3-2.5c.5-.7 1.2-1.3 2-1.6.8-.4 1.7-.6 2.7-.6 1.4 0 2.6.3 3.5 1 1 .7 1.6 1.6 2 2.8L71.4 12c-.2-.7-.5-1.3-1-1.7a3 3 0 0 0-2-.6c-1 0-1.9.3-2.4 1-.6.8-.9 1.8-.9 3v2.7c0 1.1.3 2 .9 2.8.5.8 1.3 1.1 2.4 1.1.9 0 1.6-.2 2.1-.7s1-1 1.2-1.8L74 19a6 6 0 0 1-2.1 2.9c-1 .7-2.1 1-3.5 1M81.5 20.3c1 0 1.8-.3 2.4-1 .7-.7 1-1.7 1-3v-2.6c0-1.3-.3-2.3-1-3-.6-.7-1.4-1-2.4-1s-1.8.3-2.4 1c-.7.7-1 1.7-1 3v2.6c0 1.3.3 2.3 1 3 .6.7 1.4 1 2.4 1m0 2.7c-1 0-1.9-.2-2.7-.6-.8-.3-1.5-.9-2-1.6-.6-.7-1-1.5-1.3-2.5a11 11 0 0 1 0-6.6c.3-1 .7-1.8 1.3-2.5.5-.7 1.2-1.3 2-1.6.8-.4 1.7-.6 2.7-.6 1 0 1.9.2 2.7.6.8.3 1.5.9 2 1.6.6.7 1 1.5 1.3 2.5a11.4 11.4 0 0 1 0 6.6c-.3 1-.7 1.8-1.3 2.5-.5.7-1.2 1.3-2 1.6-.8.4-1.7.6-2.7.6M96.7 20.4c1 0 1.7-.3 2.3-.7.7-.5 1-1 1-1.8v-5c0-.7-.3-1.3-1-1.8-.6-.4-1.4-.7-2.3-.7-1 0-2 .4-2.6 1-.6.7-.9 1.6-.9 2.7v2.6c0 1 .3 2 1 2.7.6.6 1.4 1 2.5 1zm3.3-.1h-.2a4 4 0 0 1-1.5 2c-.7.5-1.6.7-2.5.7a5 5 0 0 1-4.3-2c-1-1.3-1.5-3.2-1.5-5.6s.5-4.3 1.5-5.6a5 5 0 0 1 4.3-2c1 0 1.8.2 2.5.7a4 4 0 0 1 1.5 2h.2V2h3v20.7h-3zM112.6 9.5c-.5 0-1 .1-1.4.3l-1.1.8c-.3.4-.6.8-.7 1.3a5 5 0 0 0-.3 1.6v.2h6.7v-.3c0-1.2-.3-2.1-.8-2.8-.6-.7-1.4-1.1-2.4-1.1m0 13.5c-1 0-2-.2-2.8-.6-.8-.3-1.5-.9-2-1.6-.6-.7-1-1.5-1.3-2.5s-.5-2-.5-3.3c0-1.2.2-2.3.5-3.3s.7-1.8 1.3-2.5c.5-.7 1.2-1.3 2-1.6.9-.4 1.8-.6 2.8-.6 1 0 2 .2 2.8.6.8.4 1.5 1 2 1.6.5.7 1 1.5 1.2 2.4.3 1 .4 2 .4 3v1.2h-9.9v.5c0 1.2.4 2.1 1 2.9.7.7 1.6 1.1 2.8 1.1a4 4 0 0 0 2.3-.6c.6-.4 1-1 1.5-1.7l1.8 1.9c-.6 1-1.3 1.7-2.3 2.3-1 .5-2.2.8-3.6.8" transform="translate(44 3)"/></g></svg>
