<svg xmlns="http://www.w3.org/2000/svg" viewBox="0 0 100 100"><path fill="currentColor" fill-rule="nonzero" d="M55.48 0a36.11 36.11 0 0 0-26.04 11.1l-.45.49.46.46 6.52 6.53.49.5.44-.5a25.64 25.64 0 0 1 44.2 17.53 25.76 25.76 0 0 1-7.96 18.6l-.83.74a25.84 25.84 0 0 1-9.08 5.1 25.58 25.58 0 0 1-7.35 1.17h-.93v-41.7h-10.5v7.65h-1.09a35.69 35.69 0 0 0-11.27 2.1 34.7 34.7 0 0 0-6.5 3.1A35.36 35.36 0 0 0 18.95 38a36.09 36.09 0 0 0 51.03 51.03l.47-.47-.48-.47-6.46-6.47-.48-.48-.48.49a25.6 25.6 0 1 1-36.2-36.2 25.58 25.58 0 0 1 16.99-7.26h1.08v41.28h10.53v-7.23h.93a35.73 35.73 0 0 0 17.33-4.66l.84-.5a36.67 36.67 0 0 0 9.1-7.82A36.09 36.09 0 0 0 55.48 0z"/></svg>
