<svg xmlns="http://www.w3.org/2000/svg" xmlns:xlink="http://www.w3.org/1999/xlink" width="353" height="413">
    <defs>
        <path id="a" d="M198.047 0c-25.874 0-51.421 6.557-73.876 18.962a151.909 151.909 0 0 0-34.956 26.53L87.3 47.446l1.955 1.91 27.075 26.526 2.054 2.007 1.99-2.07c6.57-6.835 14.124-12.819 22.45-17.772 16.64-9.848 35.735-15.058 55.223-15.058 59.033 0 107.06 47.042 107.06 104.866 0 16.06-3.613 31.464-10.749 45.784-5.642 11.369-13.294 21.572-22.748 30.33a91.967 91.967 0 0 1-3.399 3.044 108.028 108.028 0 0 1-27.224 16.93 102.591 102.591 0 0 1-10.734 3.937 107.598 107.598 0 0 1-30.454 4.798h-.095l-.099.01c-.442.033-.903.038-1.355.038h-.203a80.96 80.96 0 0 1-2.198-.034V81.924h-43.893v31.366c-.333-.005-.67-.005-1.003-.005-.605 0-1.206.005-1.811.015-.586.005-1.171.01-1.757.01-9.31.233-18.505 1.278-27.398 3.115a147.913 147.913 0 0 0-19.7 5.44 151.409 151.409 0 0 0-27.185 12.657c-10.104 5.974-19.443 13.07-27.76 21.1a145.71 145.71 0 0 0-10.307 10.918C12.445 193.05 0 226.648 0 261.145 0 342.675 67.718 409 150.953 409c25.532 0 50.806-6.402 73.087-18.52a150.41 150.41 0 0 0 34.653-25.898l1.945-1.949-1.97-1.93-27.025-26.476-2.025-1.979-1.99 2.003a106.639 106.639 0 0 1-22.197 17.125c-16.44 9.575-35.278 14.635-54.478 14.635-59.033 0-107.06-47.042-107.06-104.866 0-16.03 3.618-31.44 10.754-45.784 5.458-10.97 12.748-20.833 21.666-29.32a93.7 93.7 0 0 1 4.486-4.054c10.967-9.323 23.462-16.254 37.139-20.6a107.801 107.801 0 0 1 29.536-5.04 83.05 83.05 0 0 1 3.48-.073c.332 0 .67.005 1.002.014v169.063h43.893V295.7c.734.01 1.473.015 2.198.015.625 0 1.275 0 1.9-.024 16.357-.18 32.5-2.951 47.898-8.225A155.821 155.821 0 0 0 272.4 276.52a181.313 181.313 0 0 0 3.499-2.018 150.954 150.954 0 0 0 26.658-20.04c3.95-3.69 7.796-7.724 11.409-11.977C336.559 215.974 349 182.37 349 147.855 349 66.325 281.282 0 198.047 0"/>
    </defs>
    <use fill="none" fill-rule="evenodd" stroke="#FFF" stroke-width="4" opacity=".1" transform="translate(2 2)" xlink:href="#a"/>
</svg>
