<svg xmlns="http://www.w3.org/2000/svg" viewBox="0 0 410.2 410.2"><path fill="currentColor" d="M403.6 74.2c-9 4-18.5 7.2-28.2 9.5a88.2 88.2 0 0 0 23.2-37c1.3-4.1-3-7.6-6.7-5.4-13.5 8-28 14-43.3 17.8-.9.3-1.8.4-2.7.4-2.7 0-5.4-1-7.5-3a88.4 88.4 0 0 0-86.6-17.7 85.7 85.7 0 0 0-57.7 61.7 94.3 94.3 0 0 0-2.1 32.6 3.3 3.3 0 0 1-3.5 3.6A231.9 231.9 0 0 1 29 51.5c-2-2.5-6-2.2-7.6.6A88.4 88.4 0 0 0 36 159.6c-7-1.7-13.8-4.3-20.2-7.8-3-1.7-6.8.5-6.8 4a88.5 88.5 0 0 0 51.6 81.6 79.2 79.2 0 0 1-16.8-1.4 4.6 4.6 0 0 0-5.3 6 88.6 88.6 0 0 0 70 60.2 163.2 163.2 0 0 1-91.3 27.7H6.8c-3.1 0-5.8 2-6.6 5.1a7 7 0 0 0 3.4 7.8c37 21.5 79.1 32.9 122 32.9a246 246 0 0 0 104.1-22.1c29-13.5 54.7-32.7 76.3-57.2a250.5 250.5 0 0 0 62.6-163.8v-1.3c0-4.6 2-8.8 5.6-11.7 13.6-11 25.4-24 35.2-38.6 2.5-3.9-1.5-8.7-5.8-6.8z"/></svg>